<?xml version="1.0" encoding="UTF-8"?>
<svg version="1.1" xmlns="http://www.w3.org/2000/svg" width="2048" height="2048">
<path d="M0 0 C675.84 0 1351.68 0 2048 0 C2048 675.84 2048 1351.68 2048 2048 C1372.16 2048 696.32 2048 0 2048 C0 1372.16 0 696.32 0 0 Z " fill="#FEFEFE" transform="translate(0,0)"/>
<path d="M0 0 C6.01533137 11.27874631 4.53670629 27.97398349 5.30273438 40.57763672 C5.37943359 41.82303223 5.45613281 43.06842773 5.53515625 44.3515625 C5.600979 45.46354004 5.66680176 46.57551758 5.73461914 47.72119141 C5.95204119 50.97922402 5.95204119 50.97922402 6.51416016 54.08789062 C7.22388628 59.80279086 7.20300754 65.48822805 7.23828125 71.2421875 C7.2527681 73.19278328 7.2527681 73.19278328 7.26754761 75.18278503 C7.29479955 79.41351198 7.30548532 83.64419701 7.3125 87.875 C7.31488867 88.95305971 7.31488867 88.95305971 7.31732559 90.05289841 C7.36229797 113.91422716 6.33848781 137.3830915 3.2467041 161.06524658 C2.87951867 163.94486336 2.56183867 166.82961773 2.2421875 169.71484375 C0.74814663 182.74057994 -1.72582516 195.53369124 -4.44189453 208.35498047 C-4.9001734 210.52689352 -5.34117483 212.70244525 -5.77734375 214.87890625 C-9.70745311 234.20388186 -15.39404815 253.1037018 -21.375 271.875 C-21.93574219 273.65970703 -21.93574219 273.65970703 -22.5078125 275.48046875 C-24.66423046 282.23773735 -27.0638234 288.78764967 -29.85742188 295.30712891 C-31.38651106 298.91094381 -32.72983693 302.57025169 -34.0625 306.25 C-36.06412421 311.69875826 -38.32595556 316.84998849 -41 322 C-41.36420427 323.32523362 -41.70525745 324.65760821 -42 326 C-42.66 326 -43.32 326 -44 326 C-44.11794922 326.95519531 -44.11794922 326.95519531 -44.23828125 327.9296875 C-45.31706845 332.27802977 -47.24288301 336.10209349 -49.1875 340.125 C-49.74920898 341.31222656 -49.74920898 341.31222656 -50.32226562 342.5234375 C-52.87487612 347.86110531 -55.62810167 353.06490294 -58.48461914 358.24560547 C-59.94082669 360.89244509 -61.36901752 363.55236892 -62.7890625 366.21875 C-69.36185763 378.49610489 -76.35942987 390.35930257 -84 402 C-84.6511377 402.99451172 -85.30227539 403.98902344 -85.97314453 405.01367188 C-88.07899763 408.22231019 -90.19352896 411.42501118 -92.3125 414.625 C-92.97024414 415.62063965 -93.62798828 416.6162793 -94.30566406 417.64208984 C-97.83678247 422.93519886 -101.49598013 428.0516498 -105.44799805 433.03857422 C-107.44555971 435.5631 -109.34509322 438.15512698 -111.25 440.75 C-115.39708051 446.30059926 -119.80028207 451.58106551 -124.30859375 456.83984375 C-126.78021345 459.72588778 -129.17694638 462.6672501 -131.5625 465.625 C-135.36696006 470.30060655 -139.35551653 474.77204904 -143.4453125 479.19921875 C-145.40008004 481.34228959 -147.30415877 483.50756559 -149.19702148 485.70410156 C-152.7827746 489.80605917 -156.54479952 493.68983705 -160.40234375 497.53515625 C-161.08373917 498.21750839 -161.76513458 498.89986053 -162.46717834 499.60289001 C-163.89705741 501.03344437 -165.32817911 502.46275767 -166.76049805 503.89086914 C-168.93197711 506.05699074 -171.09806325 508.22840174 -173.26367188 510.40039062 C-174.66374202 511.79979987 -176.06412238 513.19889884 -177.46484375 514.59765625 C-178.10155502 515.23639175 -178.7382663 515.87512726 -179.39427185 516.53321838 C-183.22406101 520.34345649 -187.1676588 523.9695783 -191.25932312 527.49743652 C-193.50387921 529.43495177 -195.6877743 531.43569655 -197.875 533.4375 C-201.86981568 537.03828985 -205.9629219 540.45439475 -210.1875 543.78125 C-212.28313186 545.43447069 -214.36451574 547.10008254 -216.4375 548.78125 C-225.10069426 555.79469364 -233.92852262 562.52320283 -243 569 C-243.56460938 569.40347656 -244.12921875 569.80695312 -244.7109375 570.22265625 C-252.60240139 575.83559888 -260.71246131 580.99582986 -269 586 C-277.61341542 591.13969545 -277.61341542 591.13969545 -285.875 596.8125 C-288.54528856 598.68170199 -290.93941235 599.82182374 -293.91748047 601.06079102 C-298.12417146 602.95799386 -302.10498333 605.30309625 -306.125 607.5625 C-307.8760665 608.5457123 -309.62862597 609.52627137 -311.3828125 610.50390625 C-312.14996582 610.93517822 -312.91711914 611.3664502 -313.70751953 611.81079102 C-316.08933675 613.04634284 -318.49610356 614.03940046 -321 615 C-326.35628033 617.24686909 -331.52531276 619.7753855 -336.6875 622.4375 C-353.4722073 631 -353.4722073 631 -361 631 C-361 631.66 -361 632.32 -361 633 C-361.55236328 633.18062988 -362.10472656 633.36125977 -362.67382812 633.54736328 C-371.91031715 636.57581443 -381.12734786 639.59883018 -390.1875 643.125 C-397.17723949 645.822094 -404.2736025 647.85469191 -411.5078125 649.78515625 C-415.10853966 650.74612451 -418.67654041 651.78952706 -422.2421875 652.87255859 C-431.77907283 655.76286464 -441.41252742 658.09569404 -451.12207031 660.32763672 C-454.08475122 661.01980021 -457.03841399 661.74347607 -459.9921875 662.47265625 C-524.46442646 678.20079346 -598.41766251 682.44240399 -663.61621094 668.48681641 C-668.25421737 667.53964467 -672.94639612 666.90042304 -677.625 666.1875 C-686.56585541 664.78878755 -695.44916776 663.20291804 -704.3125 661.375 C-705.83254639 661.06598755 -705.83254639 661.06598755 -707.38330078 660.75073242 C-708.32544434 660.5519751 -709.26758789 660.35321777 -710.23828125 660.1484375 C-711.06368408 659.97489746 -711.88908691 659.80135742 -712.73950195 659.62255859 C-715.02270898 658.99374577 -716.90264339 658.08406105 -719 657 C-721.64122525 656.44632701 -724.28435177 656.05738695 -726.953125 655.66015625 C-729.4406194 655.12119913 -731.51544029 654.46571451 -733.8671875 653.546875 C-737.79100319 652.01934987 -741.76174848 651.05709984 -745.875 650.1875 C-752.24627728 648.76446276 -758.4353822 647.01291806 -764.625 644.9375 C-765.35831543 644.69217529 -766.09163086 644.44685059 -766.84716797 644.1940918 C-770.18647136 643.0504895 -773.45042439 641.83255177 -776.6796875 640.40625 C-779.63435369 639.15486197 -782.38750544 638.29942886 -785.5 637.5625 C-789.53500232 636.50845858 -792.71151672 635.21557155 -796.23046875 633.0234375 C-799.00387186 631.4193942 -801.95633574 630.35024297 -804.9375 629.19140625 C-815.05724559 625.25451543 -825.04260429 621.18393593 -834.6796875 616.1640625 C-837.0606331 614.90048141 -837.0606331 614.90048141 -840 614 C-840 613.34 -840 612.68 -840 612 C-840.70576172 611.89349121 -841.41152344 611.78698242 -842.13867188 611.67724609 C-845.35395156 610.91622341 -847.8578465 609.70146802 -850.78125 608.1640625 C-851.87050781 607.59429688 -852.95976563 607.02453125 -854.08203125 606.4375 C-855.20996094 605.839375 -856.33789062 605.24125 -857.5 604.625 C-858.62792969 604.03460937 -859.75585938 603.44421875 -860.91796875 602.8359375 C-871.96229998 597.03276227 -871.96229998 597.03276227 -875 595 C-875 594.34 -875 593.68 -875 593 C-875.71897461 592.89598877 -876.43794922 592.79197754 -877.17871094 592.68481445 C-880.31282197 591.9240684 -882.4131101 590.75510745 -885.140625 589.04296875 C-886.61015625 588.12511597 -886.61015625 588.12511597 -888.109375 587.1887207 C-889.14578125 586.52831787 -890.1821875 585.86791504 -891.25 585.1875 C-892.85875 584.17079224 -892.85875 584.17079224 -894.5 583.13354492 C-903.54669921 577.3745255 -912.36447932 571.35673233 -921 565 C-921.67466309 564.5040332 -922.34932617 564.00806641 -923.04443359 563.49707031 C-949.99775845 543.61252788 -975.54483101 521.94723547 -999 498 C-999.7734375 497.24460937 -1000.546875 496.48921875 -1001.34375 495.7109375 C-1004.32062109 492.67277789 -1007.06849259 489.49702378 -1009.8125 486.25 C-1013.22926428 482.23147568 -1016.65737945 478.23249331 -1020.1875 474.3125 C-1024.6273382 469.34389257 -1028.81560587 464.18414653 -1033 459 C-1033.92687252 457.86571312 -1034.85396506 456.731606 -1035.78125 455.59765625 C-1046.78288228 442.07947854 -1056.80158253 427.91996561 -1066.51751709 413.45910645 C-1067.33509831 412.24243158 -1068.15429733 411.02684218 -1068.97515869 409.81237793 C-1070.13033427 408.10037415 -1071.2772847 406.38315586 -1072.421875 404.6640625 C-1073.08799805 403.66842285 -1073.75412109 402.6727832 -1074.44042969 401.64697266 C-1075.80253186 399.33515177 -1076.56022454 397.61922805 -1077 395 C-1077.66 395 -1078.32 395 -1079 395 C-1079.33209473 394.38068604 -1079.66418945 393.76137207 -1080.00634766 393.12329102 C-1081.54128143 390.26718549 -1083.08309264 387.41484636 -1084.625 384.5625 C-1085.14707031 383.58861328 -1085.66914062 382.61472656 -1086.20703125 381.61132812 C-1088.67518888 377.05590138 -1091.17720791 372.64976227 -1094.1484375 368.40234375 C-1096.7213556 364.64124653 -1098.38381113 360.89435625 -1099.9765625 356.63769531 C-1101.87020095 351.75723973 -1104.22000689 347.08408659 -1106.5 342.375 C-1106.97308594 341.39015625 -1107.44617187 340.4053125 -1107.93359375 339.390625 C-1109.96603955 335.16809218 -1112.01477132 330.95938949 -1114.15234375 326.7890625 C-1116.07779092 322.95680469 -1117.60273138 319.02911878 -1119.0625 315 C-1119.30548828 314.34 -1119.54847656 313.68 -1119.79882812 313 C-1120.28804918 311.67118738 -1120.7756102 310.34176236 -1121.26147461 309.01171875 C-1122.02144165 306.94159367 -1122.79410219 304.87658529 -1123.5703125 302.8125 C-1124.67168237 299.88217783 -1125.75162007 296.94527396 -1126.8125 294 C-1127.96247183 290.80806299 -1129.14237112 287.63620751 -1130.37890625 284.4765625 C-1134.03955181 275.09721816 -1136.93462986 265.61601093 -1139.60546875 255.91015625 C-1140.45287665 252.84939607 -1141.37657066 249.84615009 -1142.421875 246.84765625 C-1144.70173173 240.14085029 -1146.32519176 233.23748802 -1148.0625 226.375 C-1148.59144192 224.29602827 -1149.12133606 222.2173046 -1149.65220642 220.13882446 C-1150.13197736 218.25885567 -1150.60916043 216.37822699 -1151.08618164 214.49755859 C-1151.71190955 212.10264061 -1152.37302091 209.71676698 -1153.06396484 207.33984375 C-1153.81046955 204.6762589 -1154.39900211 202.14093808 -1154.81640625 199.4140625 C-1155.00299805 198.23650391 -1155.00299805 198.23650391 -1155.19335938 197.03515625 C-1155.31517578 196.23980469 -1155.43699219 195.44445313 -1155.5625 194.625 C-1155.92782656 189.39389355 -1155.92782656 189.39389355 -1158 185 C-1159.4497699 178.07332161 -1159.07239638 171.04281073 -1159 164 C-1139.07771354 163.84737222 -1119.19146902 164.2614072 -1099.27895737 164.80771637 C-1096.78346207 164.87579214 -1094.2879336 164.94248883 -1091.79238892 165.00872803 C-1058.85771471 165.88306236 -1025.92793246 166.90210726 -993 168 C-992.83166153 168.67433578 -992.66332306 169.34867157 -992.48988342 170.04344177 C-991.71354936 173.15271949 -990.93685476 176.26190705 -990.16015625 179.37109375 C-989.89545532 180.43146851 -989.63075439 181.49184326 -989.35803223 182.58435059 C-984.19923465 203.23141839 -978.25423426 223.08253608 -970.5625 242.9375 C-970.25755615 243.72656738 -969.9526123 244.51563477 -969.63842773 245.32861328 C-968.05348076 249.40058483 -966.40860788 253.4124613 -964.5625 257.375 C-963 261 -963 261 -963 265 C-962.34 265 -961.68 265 -961 265 C-960.71914551 265.60247559 -960.43829102 266.20495117 -960.14892578 266.82568359 C-951.52297723 285.26386733 -942.36156014 303.09181502 -931 320 C-930.35611328 320.96268799 -930.35611328 320.96268799 -929.69921875 321.94482422 C-917.5397483 340.06576416 -903.89625368 356.85484984 -889.52197266 373.26220703 C-888.16089796 374.81628623 -886.80472625 376.37465633 -885.44921875 377.93359375 C-881.45974551 382.46050898 -877.37144897 386.59355697 -872.765625 390.4921875 C-869.75637696 393.06203207 -867.04017208 395.91429044 -864.3046875 398.76953125 C-859.76227435 403.43148158 -854.97207105 407.59369543 -849.89453125 411.6640625 C-847.02952899 413.97616959 -844.23591335 416.35799522 -841.4375 418.75 C-797.35223269 455.48772276 -736.32223397 488.69018248 -679.12890625 497.640625 C-677 498 -677 498 -673.5625 499 C-669.58153395 500.11746415 -665.63828628 500.7443515 -661.55078125 501.33984375 C-658.46946127 501.91271842 -655.51322151 502.63495156 -652.484375 503.4296875 C-608.54436974 514.49643374 -553.41256498 512.86372523 -509 505 C-508.04641602 504.8345166 -507.09283203 504.6690332 -506.11035156 504.49853516 C-501.44814275 503.66056761 -496.84141906 502.68131459 -492.24267578 501.54736328 C-489.70821691 500.92878536 -487.16584272 500.35208045 -484.62109375 499.77734375 C-476.27581847 497.87296921 -468.05801245 495.88929257 -459.984375 493.015625 C-457.06062162 492.02063039 -454.11365905 491.17467551 -451.13842773 490.34863281 C-379.25167945 470.22461103 -303.97522679 420.96822566 -258 362 C-256.46215135 360.18425941 -254.92022192 358.37196997 -253.375 356.5625 C-241.89166539 342.77535487 -231.41462299 328.27060859 -222 313 C-221.40928711 312.04383789 -221.40928711 312.04383789 -220.80664062 311.06835938 C-218.51868661 307.34708073 -216.27965019 303.59991165 -214.07519531 299.82861328 C-213.03079407 298.05237229 -211.96563299 296.2899536 -210.8984375 294.52734375 C-203.65812863 282.33976663 -198.15659399 269.31273344 -192.48022461 256.34887695 C-190.71006528 252.34404841 -188.8792115 248.3691403 -187.02661133 244.40185547 C-185.63751526 241.15193226 -184.68829955 237.83477586 -183.73803711 234.43505859 C-183.00901853 232.02975548 -182.11423146 229.78737009 -181.12890625 227.4765625 C-178.74429076 221.58928797 -177.10369222 215.57620861 -175.5 209.4375 C-175.19739258 208.29796875 -174.89478516 207.1584375 -174.58300781 205.984375 C-172.55267594 198.28086502 -170.65347632 190.55712007 -168.921875 182.78125 C-168.17884662 179.73357429 -167.3507288 176.76361213 -166.44238281 173.76367188 C-166.17226379 172.86966675 -165.90214478 171.97566162 -165.62384033 171.05456543 C-165.41797302 170.37655884 -165.21210571 169.69855225 -165 169 C-165.86653954 169.00276538 -166.73307907 169.00553076 -167.62587738 169.00837994 C-188.76986325 169.07480833 -209.91383099 169.1243623 -231.05789948 169.15543652 C-241.28326683 169.17086552 -251.50856426 169.19187867 -261.73388672 169.22631836 C-270.65257457 169.25634272 -279.57121176 169.27560378 -288.48994875 169.28226548 C-293.20663513 169.28615578 -297.92317662 169.29521458 -302.63981628 169.31719017 C-307.09180749 169.33776196 -311.54359603 169.34379264 -315.99563026 169.33932304 C-317.61760375 169.3401391 -319.239585 169.34598024 -320.86151695 169.35761642 C-331.6147193 169.43088858 -341.48796071 168.35059825 -352 166 C-352.92601265 165.79805621 -353.8520253 165.59611242 -354.80609894 165.38804913 C-374.38190164 160.81019982 -391.15988745 144.61460057 -401.6640625 128.19140625 C-412.25671357 110.81574178 -416.15514486 88.60578533 -412.28125 68.578125 C-411.35225189 64.96701944 -410.27359058 61.50341803 -409 58 C-408.63777344 56.97003906 -408.27554688 55.94007813 -407.90234375 54.87890625 C-399.76577417 33.66866215 -384.8964927 18.2785644 -364.375 8.8125 C-359.14326104 6.66937802 -353.92968538 5.02231119 -348.4375 3.6875 C-347.79022949 3.52805908 -347.14295898 3.36861816 -346.47607422 3.2043457 C-334.08413881 0.43411403 -321.16178119 0.83702835 -308.53417969 0.79467773 C-306.6968738 0.78507194 -304.85956999 0.77506314 -303.0222683 0.76468754 C-298.03471821 0.73773551 -293.04715889 0.71663676 -288.05957651 0.69668961 C-282.73842241 0.67448065 -277.41729442 0.64710146 -272.09616089 0.6204834 C-261.8465901 0.57014387 -251.59700254 0.52518642 -241.34739792 0.48234785 C-233.11804383 0.44786883 -224.88870169 0.41124698 -216.65936279 0.37332153 C-144.43926385 0.04149107 -72.22083554 -0.15151801 0 0 Z " fill="#000000" transform="translate(1600,934)"/>
<path d="M0 0 C1.31492432 -0.0033284 2.62984863 -0.0066568 3.98461914 -0.01008606 C6.77865412 -0.01606604 9.5726583 -0.01792809 12.36669922 -0.01733398 C15.16266548 -0.01725411 17.95846305 -0.02396971 20.75439453 -0.0378418 C45.43891442 -0.15839112 70.45746322 -0.06473059 94.81640625 4.33203125 C98.41884865 4.98063876 102.0249215 5.51375995 105.65234375 6.00390625 C138.41562578 10.45840217 171.20039633 18.08167113 202.59619141 28.49658203 C205.00197315 29.29271919 207.41321362 30.07139065 209.82421875 30.8515625 C218.24812955 33.59677513 226.6186997 36.35295913 234.74169922 39.91210938 C237.56194756 41.14050544 240.39593678 42.32764682 243.23828125 43.50390625 C268.23561166 53.90429734 292.85026248 65.08033517 315.99755859 79.18994141 C318.1326049 80.47301904 320.30949052 81.67006169 322.5 82.85546875 C326.76387998 85.18496302 330.81221198 87.82178522 334.89453125 90.453125 C338.71767609 92.8542131 342.64668714 95.0363789 346.625 97.16796875 C346.625 97.82796875 346.625 98.48796875 346.625 99.16796875 C347.34945312 99.42707031 348.07390625 99.68617188 348.8203125 99.953125 C351.74232035 101.21878578 353.95447884 102.69831037 356.5 104.60546875 C357.46164062 105.32089844 358.42328125 106.03632812 359.4140625 106.7734375 C359.93129883 107.16063965 360.44853516 107.5478418 360.98144531 107.94677734 C362.69347165 109.21884445 364.41881429 110.47072846 366.1484375 111.71875 C377.28491539 119.77069039 388.25099488 128.10798365 398.4921875 137.28515625 C400.22822285 138.81770028 401.9824996 140.31454585 403.7578125 141.80078125 C410.54043256 147.49833386 417.01665136 153.35371724 423.1862793 159.71533203 C426.49306649 163.11300344 429.96913208 166.13923774 433.625 169.16796875 C435.31343137 170.8125827 436.9760435 172.48377814 438.625 174.16796875 C440.16257026 175.69681472 441.7018219 177.22397047 443.2421875 178.75 C444.9948604 180.49342048 446.74746256 182.2369121 448.5 183.98046875 C449.37269531 184.84478516 450.24539063 185.70910156 451.14453125 186.59960938 C456.18777803 191.62389658 461.01693063 196.74290192 465.625 202.16796875 C466.57248069 203.25949318 467.52037529 204.3506585 468.46875 205.44140625 C473.34297192 211.11321183 477.96507509 216.79115169 482.08984375 223.046875 C483.55736179 225.20358252 483.55736179 225.20358252 485.4296875 226.91796875 C488.62477267 230.19264679 491.16278843 233.88409433 493.8125 237.60546875 C494.38476318 238.4044458 494.95702637 239.20342285 495.54663086 240.02661133 C497.24498509 242.40316503 498.93653886 244.78437864 500.625 247.16796875 C501.09260742 247.82732422 501.56021484 248.48667969 502.04199219 249.16601562 C513.625 265.54832252 513.625 265.54832252 513.625 269.16796875 C514.285 269.16796875 514.945 269.16796875 515.625 269.16796875 C517.2654154 271.40947499 518.77162087 273.63585185 520.25 275.98046875 C520.67023438 276.62306641 521.09046875 277.26566406 521.5234375 277.92773438 C524.625 282.78651329 524.625 282.78651329 524.625 286.16796875 C525.285 286.16796875 525.945 286.16796875 526.625 286.16796875 C527.10066406 287.06322266 527.10066406 287.06322266 527.5859375 287.9765625 C530.41510661 293.23631613 533.34650994 298.39905632 536.42285156 303.51733398 C546.625 320.53029859 546.625 320.53029859 546.625 327.16796875 C528.02320347 328.22630475 509.42409954 328.43832222 490.79852295 328.64049149 C483.22366751 328.72421409 475.64893654 328.81880701 468.07421875 328.9140625 C467.25324581 328.92429884 466.43227287 328.93453518 465.58642197 328.94508171 C453.70108142 329.0948066 441.82102184 329.31980086 429.9395752 329.66534424 C425.35523551 329.79433244 420.77022172 329.89565662 416.18515015 329.99475098 C411.50152208 330.09703815 406.81897949 330.21884242 402.13623047 330.35595703 C396.27000397 330.5235274 390.40429998 330.64006334 384.53637695 330.72872925 C382.24695763 330.77106557 379.95776816 330.82922286 377.66918945 330.90432739 C359.78624148 331.47701964 359.78624148 331.47701964 354.5378418 328.2980957 C352.48033366 326.01872958 351.05060464 323.87681929 349.625 321.16796875 C348.89152344 320.26949219 348.15804687 319.37101562 347.40234375 318.4453125 C346.49162109 317.28708984 346.49162109 317.28708984 345.5625 316.10546875 C332.13289916 299.59968584 316.79017596 283.21541068 300.03515625 270.07421875 C297.62388956 268.16709048 295.3422987 266.16719975 293.0625 264.10546875 C283.77050248 255.78036339 273.72935873 248.46207056 263.625 241.16796875 C262.72523438 240.51570312 261.82546875 239.8634375 260.8984375 239.19140625 C243.64911475 226.88651478 224.75569815 216.31443982 205.66455078 207.15087891 C203.48683376 206.10138301 201.31980339 205.03144261 199.15234375 203.9609375 C187.56758116 198.29331891 175.76530851 193.50990908 163.625 189.16796875 C162.78775391 188.86648926 161.95050781 188.56500977 161.08789062 188.25439453 C132.23861329 177.96631567 102.45422412 171.7998165 72.125 167.91796875 C70.86276611 167.75466064 69.60053223 167.59135254 68.30004883 167.4230957 C51.81171884 165.41826346 35.28386963 164.96173484 18.6875 164.98046875 C17.85336578 164.98040833 17.01923157 164.9803479 16.15982056 164.98028564 C-10.5480288 164.9773966 -10.5480288 164.9773966 -36.92016602 168.67724609 C-41.22566932 169.53791856 -45.58220441 170.00509013 -49.9375 170.54296875 C-65.84162338 172.63153746 -80.84872725 176.74410137 -96.14941406 181.48046875 C-98.06333537 182.07169323 -99.98058153 182.65213524 -101.8984375 183.23046875 C-105.0647005 184.18752558 -108.22107134 185.17101598 -111.375 186.16796875 C-112.04708496 186.3788916 -112.71916992 186.58981445 -113.41162109 186.80712891 C-123.77570843 190.08036281 -133.69969758 193.88190803 -143.59228516 198.37597656 C-146.17854212 199.52495186 -148.80824418 200.55938299 -151.4375 201.60546875 C-157.42536429 204.07536121 -163.04673418 207.10773815 -168.7265625 210.203125 C-171.85998467 211.90685194 -175.0386651 213.49009037 -178.25 215.04296875 C-191.58255059 221.66450394 -204.14774197 229.70575084 -216.375 238.16796875 C-216.9637793 238.57515137 -217.55255859 238.98233398 -218.15917969 239.40185547 C-227.16147636 245.66076058 -235.82712382 252.30450434 -244.375 259.16796875 C-245.35597656 259.95300781 -246.33695313 260.73804688 -247.34765625 261.546875 C-253.54456642 266.55844089 -259.51664687 271.76579885 -265.375 277.16796875 C-265.97505859 277.71759277 -266.57511719 278.2672168 -267.19335938 278.83349609 C-276.02498234 286.93496266 -284.42781674 295.19575071 -292.375 304.16796875 C-293.16390625 305.03035156 -293.9528125 305.89273437 -294.765625 306.78125 C-313.77841852 327.57245108 -329.25868697 351.16669828 -342.96484375 375.69848633 C-344.41785308 378.24301357 -345.93249777 380.74235117 -347.4609375 383.2421875 C-350.15284792 387.70204942 -352.45326067 392.24938172 -354.625 396.98046875 C-355.39404136 398.63173866 -356.16359258 400.28277119 -356.93359375 401.93359375 C-357.3291748 402.78501953 -357.72475586 403.63644531 -358.13232422 404.51367188 C-359.41615694 407.25587804 -360.72207244 409.98653149 -362.03515625 412.71484375 C-362.47762695 413.63547607 -362.92009766 414.5561084 -363.37597656 415.50463867 C-364.22354603 417.26620105 -365.07302355 419.02684721 -365.92480469 420.78637695 C-371.07306119 431.39812904 -371.07306119 431.39812904 -374.375 442.66796875 C-375.01629417 445.87443961 -375.92365312 448.71435606 -377.1875 451.73046875 C-381.64755183 462.44122518 -384.62233947 473.73517868 -387.48046875 484.9609375 C-388.2749557 487.80929464 -389.25398194 490.43746213 -390.375 493.16796875 C-403.99990211 493.3429084 -417.62490228 493.5089876 -431.25 493.66796875 C-432.77622671 493.68578463 -432.77622671 493.68578463 -434.33328629 493.70396042 C-464.24356485 494.05069404 -494.15015173 494.26243493 -524.0625 494.23046875 C-525.27297123 494.22918472 -525.27297123 494.22918472 -526.50789642 494.22787476 C-536.13029053 494.21687473 -545.75264388 494.1974411 -555.375 494.16796875 C-555.4033748 489.00676 -555.2506667 484.1109473 -554.5625 478.98046875 C-554.33626953 477.22669922 -554.33626953 477.22669922 -554.10546875 475.4375 C-550.53489047 452.60108936 -543.22157315 429.9717195 -536.26220703 407.98974609 C-535.46891399 405.46666383 -534.69512507 402.9390629 -533.93359375 400.40625 C-531.86082661 393.53788578 -529.555179 386.89168267 -526.6953125 380.30859375 C-525.11600349 376.5518942 -523.7150127 372.74332323 -522.3125 368.91796875 C-520.56767022 364.18460114 -518.7530882 359.58671638 -516.36035156 355.1394043 C-515.30563694 353.02919108 -514.4582406 350.89777746 -513.61328125 348.6953125 C-511.23882075 342.70012769 -508.49365664 336.90874413 -505.6875 331.10546875 C-505.15350586 330.00058105 -504.61951172 328.89569336 -504.06933594 327.75732422 C-481.54361744 281.38839619 -452.69483972 236.7291835 -417.71875 198.73046875 C-415.68886333 196.51112599 -413.71004502 194.26124841 -411.75 191.98046875 C-408.73187701 188.49966181 -405.50423437 185.27787002 -402.22265625 182.046875 C-400.61560352 180.41264167 -399.13518418 178.75490297 -397.6875 176.98046875 C-395.38657849 174.1820507 -392.96611659 171.69882682 -390.375 169.16796875 C-389.4778125 168.2553125 -389.4778125 168.2553125 -388.5625 167.32421875 C-384.71808585 163.41973563 -380.78445667 159.71065756 -376.62890625 156.140625 C-374.41537287 154.20330376 -372.25296285 152.21696739 -370.09692383 150.21606445 C-364.95384189 145.44613214 -359.70139413 140.89266388 -354.234375 136.4921875 C-350.4814947 133.44169053 -346.80529912 130.30441698 -343.14086914 127.1484375 C-336.47653759 121.45654237 -329.35419437 116.38972391 -322.1875 111.35546875 C-321.44701416 110.83484863 -320.70652832 110.31422852 -319.94360352 109.77783203 C-318.44954782 108.72830342 -316.95501008 107.67946064 -315.45996094 106.63134766 C-313.61878756 105.33907679 -311.78151163 104.04150866 -309.9453125 102.7421875 C-302.28714303 97.36619073 -294.43254208 92.37799469 -286.47167969 87.46923828 C-284.29809552 86.12023926 -282.13622638 84.7539746 -279.9765625 83.3828125 C-279.25831299 82.9283374 -278.54006348 82.4738623 -277.80004883 82.00561523 C-276.42822026 81.136986 -275.05815639 80.26556117 -273.69018555 79.39086914 C-270.32719061 77.26982272 -267.07202522 75.60175097 -263.375 74.16796875 C-261.25509167 72.98747078 -259.1524106 71.77579498 -257.0625 70.54296875 C-246.75817406 64.55407079 -236.08426171 59.2900502 -225.19921875 54.44140625 C-222.46021466 53.20639196 -219.7460845 51.92442662 -217.03271484 50.63427734 C-205.09798226 44.98001832 -192.96311154 40.18662244 -180.375 36.16796875 C-175.57152648 34.62706954 -170.8488184 32.96813956 -166.14933777 31.12995911 C-156.93880782 27.5619147 -147.62721609 24.90934835 -138.0625 22.48046875 C-136.59028488 22.10042161 -135.11827886 21.71956351 -133.64648438 21.33789062 C-131.50358476 20.78242861 -129.3604604 20.22803744 -127.21603394 19.67849731 C-123.28330772 18.67021294 -119.36633911 17.61870292 -115.45703125 16.5234375 C-111.25843307 15.36480795 -107.05192078 14.46275414 -102.77490234 13.64648438 C-100.48200705 13.18930485 -98.22442357 12.65908041 -95.95703125 12.08984375 C-83.63813998 9.03200928 -71.21826924 6.88072927 -58.6875 4.91796875 C-57.87391022 4.78741089 -57.06032043 4.65685303 -56.22207642 4.52233887 C-46.405718 2.95674408 -36.70238869 1.84227993 -26.76325989 1.47113037 C-23.50262379 1.34899026 -20.39330651 1.17089985 -17.1652832 0.65405273 C-11.44969472 -0.07894158 -5.75666453 0.00514687 0 0 Z " fill="#00842C" transform="translate(999.375,438.83203125)"/>
<path d="M0 0 C3.38988134 3.06732531 6.27384755 6.44754509 9.17578125 9.96875 C9.90861328 10.74412109 9.90861328 10.74412109 10.65625 11.53515625 C27.6670611 29.73170753 31.02899571 53.90885102 30.359375 77.71386719 C29.05705677 100.80230695 16.98587408 123.44461311 0.26171875 139.2265625 C-8.76929388 146.76931837 -17.93912067 152.43892658 -28.82421875 156.96875 C-29.81035156 157.43152344 -30.79648438 157.89429688 -31.8125 158.37109375 C-50.49584317 166.90851546 -74.43000418 166.06464525 -93.82421875 159.96875 C-99.43084298 157.80318386 -104.6249765 154.96028141 -109.82421875 151.96875 C-110.7678125 151.46214844 -111.71140625 150.95554687 -112.68359375 150.43359375 C-119.20265221 146.79952234 -124.5168982 142.18734634 -129.82421875 136.96875 C-131.18933594 135.64037109 -131.18933594 135.64037109 -132.58203125 134.28515625 C-140.04032386 126.75026846 -145.02240134 118.36738964 -149.82421875 108.96875 C-150.34628906 107.99679687 -150.86835937 107.02484375 -151.40625 106.0234375 C-160.68664662 86.03095773 -161.49345302 59.24099048 -154.25 38.55078125 C-152.37143861 33.83121744 -150.35386871 29.37162177 -147.82421875 24.96875 C-147.458125 24.23914063 -147.09203125 23.50953125 -146.71484375 22.7578125 C-143.34713202 16.18385467 -138.91395913 10.31847712 -133.82421875 4.96875 C-133.16421875 4.96875 -132.50421875 4.96875 -131.82421875 4.96875 C-131.5921875 4.39640625 -131.36015625 3.8240625 -131.12109375 3.234375 C-123.44328373 -10.17866661 -100.90933288 -18.80389257 -87.07421875 -22.78125 C-55.53397758 -31.31100076 -24.35311918 -20.08833399 0 0 Z " fill="#01842C" transform="translate(1062.82421875,955.03125)"/>
<path d="M0 0 C675.84 0 1351.68 0 2048 0 C2048 675.84 2048 1351.68 2048 2048 C1372.16 2048 696.32 2048 0 2048 C0 1372.16 0 696.32 0 0 Z M3 3 C3 676.86 3 1350.72 3 2045 C676.86 2045 1350.72 2045 2045 2045 C2045 1371.14 2045 697.28 2045 3 C1371.14 3 697.28 3 3 3 Z " fill="#383838" transform="translate(0,0)"/>
<path d="M0 0 C675.84 0 1351.68 0 2048 0 C2047.67 673.53 2047.34 1347.06 2047 2041 C2046.67 2041 2046.34 2041 2046 2041 C2046 1368.46 2046 695.92 2046 3 C1371.81 3 697.62 3 3 3 C3 676.86 3 1350.72 3 2045 C2.67 2045 2.34 2045 2 2045 C1.67 1373.12 1.34 701.24 1 9 C0.67 9 0.34 9 0 9 C0 6.03 0 3.06 0 0 Z " fill="#535353" transform="translate(0,0)"/>
<path d="M0 0 C2.57309048 2.69004914 3.36462818 5.10044309 4.1015625 8.66015625 C4.27252441 9.47234619 4.44348633 10.28453613 4.61962891 11.12133789 C4.74515137 11.74129639 4.87067383 12.36125488 5 13 C-14.26753349 14.20473017 -33.51918377 14.12016373 -52.81420898 14.06866455 C-57.13264466 14.05826885 -61.45108655 14.05383282 -65.76953125 14.04882812 C-74.17970408 14.03823687 -82.5898474 14.02126528 -91 14 C-91 13.67 -91 13.34 -91 13 C-80.63352536 11.89802959 -70.30229689 11.78353248 -59.890625 11.68359375 C-58.0693113 11.66297811 -56.2480019 11.64198059 -54.42669678 11.62062073 C-49.67248036 11.56587538 -44.91822425 11.51625996 -40.16394043 11.46777344 C-35.29675841 11.41720743 -30.42963282 11.36170608 -25.5625 11.30664062 C-16.04171507 11.19964207 -6.52088078 11.09807191 3 11 C2.54947266 10.18595703 2.54947266 10.18595703 2.08984375 9.35546875 C1.70957031 8.64003906 1.32929687 7.92460938 0.9375 7.1875 C0.55464844 6.47980469 0.17179687 5.77210938 -0.22265625 5.04296875 C-1 3 -1 3 0 0 Z " fill="#288849" transform="translate(1541,753)"/>
<path d="M0 0 C1.65 0 3.3 0 5 0 C5 0.99 5 1.98 5 3 C35.03 3 65.06 3 96 3 C96 3.33 96 3.66 96 4 C82.33510334 4.4245931 68.66913068 4.7467353 55 5 C53.31608154 5.03184387 53.31608154 5.03184387 51.59814453 5.06433105 C44.60425114 5.1921126 37.61096308 5.28619445 30.61611938 5.34204102 C28.33165503 5.36400135 26.04725816 5.39475377 23.76303101 5.43432617 C20.5435439 5.4880219 17.32534119 5.50968908 14.10546875 5.5234375 C13.14056519 5.54606659 12.17566162 5.56869568 11.18151855 5.5920105 C4.59350756 5.57120767 4.59350756 5.57120767 1.3684082 2.46728516 C0.9168335 1.65308105 0.46525879 0.83887695 0 0 Z " fill="#4C9E67" transform="translate(1353,764)"/>
<path d="M0 0 C1.26077866 0.00007553 2.52155731 0.00015106 3.82054138 0.00022888 C5.17601563 0.00533389 6.53148947 0.01054986 7.88696289 0.01586914 C9.28943328 0.01773685 10.69190433 0.01915909 12.09437561 0.02015686 C15.76532834 0.02395423 19.43624079 0.03376043 23.10717773 0.04486084 C26.8612412 0.05513508 30.61531125 0.0596673 34.36938477 0.06469727 C41.72031448 0.07538549 49.07121114 0.09242807 56.42211914 0.11352539 C56.42211914 0.44352539 56.42211914 0.77352539 56.42211914 1.11352539 C55.78176224 1.12383286 55.14140533 1.13414032 54.48164368 1.14476013 C47.81432189 1.25297512 41.14713115 1.36756091 34.47998047 1.48583984 C31.99205264 1.52914059 29.50409603 1.57081911 27.01611328 1.61083984 C23.43912076 1.66865992 19.86227247 1.7323209 16.28540039 1.79711914 C14.61795525 1.82218788 14.61795525 1.82218788 12.91682434 1.84776306 C11.87612289 1.86770828 10.83542145 1.8876535 9.76318359 1.90820312 C8.85051224 1.92374741 7.93784088 1.93929169 6.99751282 1.95530701 C4.38995047 2.11550166 1.97498646 2.57501151 -0.57788086 3.11352539 C-2.77392127 3.23589096 -4.97266162 3.31378156 -7.17163086 3.35961914 C-8.45038086 3.39249023 -9.72913086 3.42536133 -11.04663086 3.45922852 C-13.70281752 3.5214426 -16.35899931 3.57707988 -19.01538086 3.63110352 C-26.40962446 3.82705097 -33.52195582 4.39250572 -40.80908203 5.68359375 C-44.45720508 6.25006449 -47.89513398 6.25794684 -51.57788086 6.11352539 C-51.57788086 5.78352539 -51.57788086 5.45352539 -51.57788086 5.11352539 C-41.04698042 3.23848265 -30.68630114 1.78750737 -19.98681641 1.40478516 C-19.24858643 1.37827881 -18.51035645 1.35177246 -17.74975586 1.32446289 C-17.11134766 1.30689941 -16.47293945 1.28933594 -15.81518555 1.27124023 C-13.40398335 1.13274446 -13.40398335 1.13274446 -10.34916687 0.61076355 C-6.84069259 0.14817671 -3.53464931 -0.00711197 0 0 Z " fill="#338B51" transform="translate(992.577880859375,438.886474609375)"/>
<path d="M0 0 C2.46523221 0.00535285 4.9302811 0.00001611 7.39550781 -0.00634766 C15.71719339 -0.01027016 24.0137537 0.14940608 32.32519531 0.57568359 C33.47016983 0.63379715 33.47016983 0.63379715 34.63827515 0.69308472 C39.49458633 0.96801828 44.27806509 1.48049119 49.09863281 2.13037109 C49.09863281 2.46037109 49.09863281 2.79037109 49.09863281 3.13037109 C41.08221648 3.15380609 33.06581507 3.17144169 25.04937267 3.18218327 C21.32481339 3.1873453 17.60027797 3.19431727 13.87573242 3.20581055 C-2.07336425 3.25377933 -17.98323296 3.2834446 -33.90136719 2.13037109 C-33.90136719 1.80037109 -33.90136719 1.47037109 -33.90136719 1.13037109 C-22.59070618 0.33220678 -11.3384053 -0.02911878 0 0 Z " fill="#CAEED7" transform="translate(1014.9013671875,602.86962890625)"/>
<path d="M0 0 C0.33 0 0.66 0 1 0 C1.33033461 6.16624607 0.40405334 10.36331184 -2 16 C-3.86341768 20.45844002 -3.86341768 20.45844002 -3 25 C-3.66 25.66 -4.32 26.32 -5 27 C-5.34022786 28.99883869 -5.67329097 30.99890722 -6 33 C-6.66 33.99 -7.32 34.98 -8 36 C-8.13632609 38.7904246 -7.9964746 41.51847412 -7.875 44.30859375 C-8.00475229 47.10232269 -8.56707485 48.63231509 -10 51 C-10.66 51 -11.32 51 -12 51 C-12.33 51.99 -12.66 52.98 -13 54 C-13.5880254 46.10650644 -11.41538165 39.04832384 -9.3125 31.5 C-8.94542255 30.15493268 -8.57888811 28.80971705 -8.21289062 27.46435547 C-5.68917598 18.24236376 -3.01516278 9.07448029 0 0 Z " fill="#369156" transform="translate(461,854)"/>
<path d="M0 0 C-0.74609375 1.93359375 -0.74609375 1.93359375 -2 4 C-3.84765625 4.72265625 -3.84765625 4.72265625 -6.0625 5.0625 C-10.24083165 5.81176464 -14.06704056 6.97050572 -18.0546875 8.4140625 C-20 9 -20 9 -23 9 C-23.020625 9.598125 -23.04125 10.19625 -23.0625 10.8125 C-24 13 -24 13 -27.4375 14.6875 C-28.613125 15.120625 -29.78875 15.55375 -31 16 C-31.66 16.33 -32.32 16.66 -33 17 C-35.6723621 17.13415472 -38.32250488 17.04318541 -41 17 C-38.20301948 14.65053636 -35.37588791 13.25986609 -32.0222168 11.85424805 C-29.91188478 10.96277736 -27.82062865 10.03540113 -25.73046875 9.09765625 C-11.98122738 2.93477158 -11.98122738 2.93477158 -6 0.4375 C-4.88625 -0.02849609 -4.88625 -0.02849609 -3.75 -0.50390625 C-2 -1 -2 -1 0 0 Z " fill="#3F945D" transform="translate(809,480)"/>
<path d="M0 0 C-1.72850345 0.79311367 -3.45783354 1.5844259 -5.1875 2.375 C-6.63189453 3.03628906 -6.63189453 3.03628906 -8.10546875 3.7109375 C-21.2949265 9.58478508 -34.81838344 9.2721419 -49 9 C-49.33 8.34 -49.66 7.68 -50 7 C-42.41 6.67 -34.82 6.34 -27 6 C-26.67 5.34 -26.34 4.68 -26 4 C-23.12890625 3.65625 -23.12890625 3.65625 -19.5625 3.5 C-14.736478 3.55039406 -14.736478 3.55039406 -11 1 C-9.16015625 0.33203125 -9.16015625 0.33203125 -7.0625 -0.1875 C-6.37285156 -0.36667969 -5.68320313 -0.54585937 -4.97265625 -0.73046875 C-3 -1 -3 -1 0 0 Z " fill="#278647" transform="translate(1038,1110)"/>
<path d="M0 0 C2.42781257 0.09176876 4.85568956 0.16616564 7.28417969 0.23754883 C15.07358637 0.48187919 22.789263 0.86325612 30.53417969 1.77856445 C30.53417969 2.10856445 30.53417969 2.43856445 30.53417969 2.77856445 C9.74417969 2.77856445 -11.04582031 2.77856445 -32.46582031 2.77856445 C-32.46582031 2.44856445 -32.46582031 2.11856445 -32.46582031 1.77856445 C-21.54482203 0.05177208 -11.04319829 -0.41755265 0 0 Z " fill="#C6EDD3" transform="translate(1018.4658203125,436.221435546875)"/>
<path d="M0 0 C0.33 0.99 0.66 1.98 1 3 C0.01 3.33 -0.98 3.66 -2 4 C-2.68346682 5.65984798 -3.34588315 7.32836805 -4 9 C-8.12615385 15.56307692 -8.12615385 15.56307692 -11 17 C-11.33 17.99 -11.66 18.98 -12 20 C-12.66 20 -13.32 20 -14 20 C-14.66 21.98 -15.32 23.96 -16 26 C-16.99 26 -17.98 26 -19 26 C-19.061875 26.61875 -19.12375 27.2375 -19.1875 27.875 C-20 30 -20 30 -22.5625 31.25 C-23.366875 31.4975 -24.17125 31.745 -25 32 C-19.50775484 20.13993437 -8.6313732 9.68601044 0 0 Z " fill="#D6F1DE" transform="translate(707,742)"/>
<path d="M0 0 C0.33 0 0.66 0 1 0 C4.03946478 16.58779871 2.66427744 33.88325563 -2 50 C-2.33 50 -2.66 50 -3 50 C-2.85696335 47.83314691 -2.71042449 45.6665249 -2.5625 43.5 C-2.44068359 41.69015625 -2.44068359 41.69015625 -2.31640625 39.84375 C-2.10393836 37.26265861 -1.81879764 34.68661358 -1.46484375 32.12109375 C-0.77302491 26.80189018 -0.95224969 21.50630658 -1.0390625 16.15429688 C-1.09249655 10.68175925 -0.69578568 5.43038981 0 0 Z " fill="#338F54" transform="translate(1091,1004)"/>
<path d="M0 0 C1.89730835 -0.08233643 1.89730835 -0.08233643 4.69100952 0.11444092 C5.68100952 1.59944092 5.68100952 1.59944092 6.69100952 3.11444092 C-16.07899048 3.11444092 -38.84899048 3.11444092 -62.30899048 3.11444092 C-59.69039495 0.49584539 -58.52125874 0.84402444 -54.86880493 0.79559326 C-53.73034622 0.77572357 -52.59188751 0.75585388 -51.41893005 0.73538208 C-49.56433418 0.71805527 -49.56433418 0.71805527 -47.67227173 0.70037842 C-46.40433273 0.68101227 -45.13639374 0.66164612 -43.83003235 0.64169312 C-40.45106183 0.59192812 -37.07220227 0.55072678 -33.69308472 0.5135498 C-30.27653617 0.47378855 -26.86016465 0.42242716 -23.4437561 0.37225342 C-10.67455158 0.19089508 -10.67455158 0.19089508 -5.16461182 0.15124512 C-3.44247953 0.1290497 -1.72016381 0.08525679 0 0 Z " fill="#268446" transform="translate(1043.3089904785156,600.8855590820313)"/>
<path d="M0 0 C0.66 0.33 1.32 0.66 2 1 C1.01 2.485 1.01 2.485 0 4 C-0.99 4 -1.98 4 -3 4 C-3.268125 4.804375 -3.53625 5.60875 -3.8125 6.4375 C-4.204375 7.283125 -4.59625 8.12875 -5 9 C-5.99 9.33 -6.98 9.66 -8 10 C-8.33 10.66 -8.66 11.32 -9 12 C-10.73019137 13.01199872 -12.46339655 14.01989137 -14.22265625 14.98046875 C-16.14252467 16.02672412 -16.14252467 16.02672412 -18.25 17.75 C-20 19 -20 19 -23 19 C-23.33 19.99 -23.66 20.98 -24 22 C-27.0625 23.1875 -27.0625 23.1875 -30 24 C-20.96045998 14.76710084 -10.55141136 7.37828619 0 0 Z " fill="#D4F0DD" transform="translate(784,675)"/>
<path d="M0 0 C1.32 0.66 2.64 1.32 4 2 C2 4 2 4 -0.375 4.8125 C-3.17420381 5.8306459 -3.17420381 5.8306459 -4.875 8.4375 C-6.99764981 10.99716594 -7.7345975 11.46794143 -10.6875 12.5625 C-12.3271875 13.2740625 -12.3271875 13.2740625 -14 14 C-14.75243555 15.92638012 -14.75243555 15.92638012 -15 18 C-17.42542103 20.92723228 -19.19902189 22.45700313 -23 23 C-21.63055898 20.05043472 -20.12169591 17.47531189 -18 15 C-17.34 15 -16.68 15 -16 15 C-15.78214844 14.43539062 -15.56429687 13.87078125 -15.33984375 13.2890625 C-13.56266536 10.25283353 -11.31128365 8.55796497 -8.5625 6.375 C-7.59441406 5.59898437 -6.62632812 4.82296875 -5.62890625 4.0234375 C-3.80125361 2.61671526 -1.91898681 1.27932454 0 0 Z " fill="#288B4C" transform="translate(947,945)"/>
<path d="M0 0 C0.66796875 1.75 0.66796875 1.75 1 4 C-0.07421875 6 -0.07421875 6 -1.6875 8 C-2.24566406 8.69867187 -2.80382812 9.39734375 -3.37890625 10.1171875 C-5.15759183 12.18303437 -7.07306412 14.07306412 -9 16 C-9.70125 17.0725 -10.4025 18.145 -11.125 19.25 C-11.74375 20.1575 -12.3625 21.065 -13 22 C-13.66 22 -14.32 22 -15 22 C-15.33 23.65 -15.66 25.3 -16 27 C-17.32 26.67 -18.64 26.34 -20 26 C-13.81949402 16.92238184 -7.06995233 8.39556839 0 0 Z " fill="#268645" transform="translate(567,655)"/>
<path d="M0 0 C0.66 0.33 1.32 0.66 2 1 C0.83621763 4.49134712 0.10501256 5.15377632 -3 7 C-6.25 7.6875 -6.25 7.6875 -9 8 C-9 8.66 -9 9.32 -9 10 C-10.28913487 10.67154933 -11.58140204 11.33708859 -12.875 12 C-13.59429688 12.37125 -14.31359375 12.7425 -15.0546875 13.125 C-17 14 -17 14 -19 14 C-19.33 14.99 -19.66 15.98 -20 17 C-22.31 17.33 -24.62 17.66 -27 18 C-22.46579067 13.14875492 -17.01609832 10.10457117 -11.375 6.6875 C-9.78171875 5.70040039 -9.78171875 5.70040039 -8.15625 4.69335938 C-7.14304687 4.07654297 -6.12984375 3.45972656 -5.0859375 2.82421875 C-4.1582959 2.25791748 -3.2306543 1.69161621 -2.27490234 1.1081543 C-1.52418457 0.74246338 -0.7734668 0.37677246 0 0 Z " fill="#218845" transform="translate(728,517)"/>
<path d="M0 0 C1 2 1 2 0.36328125 4.09375 C0.01652344 4.8878125 -0.33023438 5.681875 -0.6875 6.5 C-1.02136719 7.2940625 -1.35523438 8.088125 -1.69921875 8.90625 C-3.22088778 11.35554309 -4.48296459 11.7414823 -7 13 C-7.48729905 14.98168279 -7.96892534 16.96573327 -8.37890625 18.96484375 C-9.62242216 23.03950909 -12.73726639 25.28331336 -16.3125 27.3125 C-17.1478125 27.6528125 -17.1478125 27.6528125 -18 28 C-14.28714969 17.68652693 -6.46562208 8.73546813 0 0 Z " fill="#318E52" transform="translate(546,682)"/>
<path d="M0 0 C0.33 0 0.66 0 1 0 C1 1.65 1 3.3 1 5 C0.34 5 -0.32 5 -1 5 C-1.08636719 5.59167969 -1.17273438 6.18335938 -1.26171875 6.79296875 C-2.2782929 12.51003255 -3.65737981 14.98307632 -8 19 C-9.33563611 22.16701423 -9.33563611 22.16701423 -10 25 C-11.32 25 -12.64 25 -14 25 C-12.28117858 20.09745254 -9.6512274 15.81391216 -7 11.375 C-6.54882812 10.611875 -6.09765625 9.84875 -5.6328125 9.0625 C-3.8126894 5.99306164 -1.98017161 2.97025741 0 0 Z " fill="#208745" transform="translate(527,710)"/>
<path d="M0 0 C6.41069287 5.27101414 12.18590512 11.09128152 18 17 C17.34 17.33 16.68 17.66 16 18 C13.20694183 16.4960456 10.63975919 14.75983946 8 13 C7.67 13.99 7.34 14.98 7 16 C6.20046862 12.71303767 5.90341064 11.28976808 7 8 C5.7934375 7.814375 5.7934375 7.814375 4.5625 7.625 C3.716875 7.41875 2.87125 7.2125 2 7 C1.67 6.34 1.34 5.68 1 5 C0.01979625 3.9805881 -0.97803008 2.97753644 -2 2 C-1.34 2 -0.68 2 0 2 C0 1.34 0 0.68 0 0 Z " fill="#228A44" transform="translate(1440,616)"/>
<path d="M0 0 C0.99 0.33 1.98 0.66 3 1 C-15.66885624 18.33130099 -15.66885624 18.33130099 -22 23 C-22 21.68 -22 20.36 -22 19 C-21.34 19 -20.68 19 -20 19 C-19.67 18.34 -19.34 17.68 -19 17 C-17.5625 15.375 -17.5625 15.375 -16 14 C-15.34 14 -14.68 14 -14 14 C-13.67 13.01 -13.34 12.02 -13 11 C-11.24176601 9.41674275 -9.41967853 7.90343936 -7.5625 6.4375 C-3.65375212 3.36145256 -3.65375212 3.36145256 0 0 Z " fill="#D6F4E0" transform="translate(641,576)"/>
<path d="M0 0 C29.34541547 0.78110498 29.34541547 0.78110498 41 3 C41 3.33 41 3.66 41 4 C33.08 4.495 33.08 4.495 25 5 C25 4.34 25 3.68 25 3 C24.11699219 3.02320313 23.23398438 3.04640625 22.32421875 3.0703125 C14.62198757 3.18613553 7.51303965 2.71726621 0 1 C0 0.67 0 0.34 0 0 Z " fill="#278746" transform="translate(1053,440)"/>
<path d="M0 0 C0.64582031 0.0721875 1.29164063 0.144375 1.95703125 0.21875 C8.60427985 0.87347216 15.20068475 1.10953379 21.875 1.125 C22.68300049 1.12951172 23.49100098 1.13402344 24.32348633 1.13867188 C28.67321041 1.12785503 32.7090998 0.7874918 37 0 C39.67810075 -0.11196073 42.31732686 -0.04625299 45 0 C44.67 0.66 44.34 1.32 44 2 C40.37411882 3.20862706 37.03714868 3.16222347 33.26171875 3.16796875 C32.50333206 3.17129715 31.74494537 3.17462555 30.96357727 3.17805481 C29.35894374 3.18311525 27.7542997 3.18546341 26.1496582 3.18530273 C23.70701504 3.18748258 21.26482851 3.20562892 18.82226562 3.22460938 C17.2604182 3.2275449 15.69856865 3.22952863 14.13671875 3.23046875 C13.41151535 3.23765427 12.68631195 3.24483978 11.93913269 3.25224304 C7.58041159 3.23282462 4.05204616 2.60295055 0 1 C0 0.67 0 0.34 0 0 Z " fill="#CFF2DA" transform="translate(977,1117)"/>
<path d="M0 0 C-5.97808173 3.86817053 -12.32015247 5.83103065 -19.375 6.4375 C-22.30102352 6.73058282 -24.48943045 7.16622166 -27.3125 8.125 C-30.21402383 9.06968218 -31.17976659 8.8538873 -34 8 C-15.81353469 2.17656188 -15.81353469 2.17656188 -8.5625 0.0625 C-7.35787109 -0.29134766 -7.35787109 -0.29134766 -6.12890625 -0.65234375 C-3.77347175 -1.03699269 -2.24878452 -0.74276482 0 0 Z " fill="#379156" transform="translate(866,462)"/>
<path d="M0 0 C0.33 0.99 0.66 1.98 1 3 C-0.78346291 6.03188696 -1.59575156 6.86525052 -5 8 C-5.60061233 9.90178785 -5.60061233 9.90178785 -6 12 C-6.99 13.485 -6.99 13.485 -8 15 C-8.66 15 -9.32 15 -10 15 C-10.33 15.99 -10.66 16.98 -11 18 C-12.65 18.33 -14.3 18.66 -16 19 C-13.46330311 14.21049648 -10.01392315 10.5814132 -6.3125 6.6875 C-5.70599609 6.04232422 -5.09949219 5.39714844 -4.47460938 4.73242188 C-2.98706946 3.15117866 -1.4940768 1.57506813 0 0 Z " fill="#218843" transform="translate(593,625)"/>
<path d="M0 0 C0.66 1.32 1.32 2.64 2 4 C-3.83734763 10.21804421 -9.84467863 15.35426942 -17 20 C-17 17 -17 17 -16 15 C-15.01 14.67 -14.02 14.34 -13 14 C-12.360625 13.34 -11.72125 12.68 -11.0625 12 C-8.94325285 9.94497246 -7.86252086 9.40893155 -5 9 C-5 7.68 -5 6.36 -5 5 C-3.68 5 -2.36 5 -1 5 C-0.67 3.35 -0.34 1.7 0 0 Z " fill="#1B823F" transform="translate(1068,1083)"/>
<path d="M0 0 C8.79029799 0.30843151 16.03345739 3.56777413 24 7 C22.1875 8.5625 22.1875 8.5625 20 10 C19.01 9.67 18.02 9.34 17 9 C17 8.34 17 7.68 17 7 C15.68 7 14.36 7 13 7 C12 6 11 5 10 4 C7.72838745 3.42676193 7.72838745 3.42676193 5.3125 3.3125 C4.50425781 3.24675781 3.69601562 3.18101562 2.86328125 3.11328125 C2.24839844 3.07589844 1.63351562 3.03851562 1 3 C0.67 2.01 0.34 1.02 0 0 Z " fill="#15833C" transform="translate(1015,932)"/>
<path d="M0 0 C0.65871094 0.13083984 1.31742188 0.26167969 1.99609375 0.39648438 C5.29257571 1.08854499 7.41026 1.79434 10.25 3.6875 C6.63883686 4.58958822 4.01993912 4.68368059 0.38671875 3.91015625 C-0.94262695 3.63461914 -0.94262695 3.63461914 -2.29882812 3.35351562 C-3.6668457 3.05477539 -3.6668457 3.05477539 -5.0625 2.75 C-6.45952148 2.45706055 -6.45952148 2.45706055 -7.88476562 2.15820312 C-10.17516419 1.67663215 -12.46327271 1.18616228 -14.75 0.6875 C-14.75 0.3575 -14.75 0.0275 -14.75 -0.3125 C-9.41171998 -1.3428157 -5.39764462 -1.14347692 0 0 Z " fill="#18803F" transform="translate(1114.75,610.3125)"/>
<path d="M0 0 C0 0.66 0 1.32 0 2 C-1.8984375 3.5078125 -1.8984375 3.5078125 -4.375 5.125 C-5.59316406 5.93324219 -5.59316406 5.93324219 -6.8359375 6.7578125 C-9 8 -9 8 -11 8 C-11 8.66 -11 9.32 -11 10 C-14.96 11.98 -14.96 11.98 -19 14 C-19.66 13.34 -20.32 12.68 -21 12 C-18.20942528 10.18581449 -15.41735711 8.37394066 -12.625 6.5625 C-11.8309375 6.04623047 -11.036875 5.52996094 -10.21875 4.99804688 C-9.45820312 4.50498047 -8.69765625 4.01191406 -7.9140625 3.50390625 C-7.2123291 3.04830322 -6.5105957 2.5927002 -5.78759766 2.12329102 C-2.40860682 0 -2.40860682 0 0 0 Z " fill="#D6F2DE" transform="translate(807,662)"/>
<path d="M0 0 C0.33 0.66 0.66 1.32 1 2 C-2.41540855 7.33657586 -6.19280001 12.13680796 -12 15 C-14.24609375 14.65625 -14.24609375 14.65625 -16 14 C-10.74557475 9.23363401 -5.49783089 4.48507257 0 0 Z " fill="#258748" transform="translate(632,587)"/>
<path d="M0 0 C0.66 0 1.32 0 2 0 C-0.1771421 8.52713989 -4.02118158 16.18446382 -8 24 C-8.33 24 -8.66 24 -9 24 C-9 22.02 -9 20.04 -9 18 C-8.34 18 -7.68 18 -7 18 C-6.67 16.35 -6.34 14.7 -6 13 C-5.34 13 -4.68 13 -4 13 C-3.814375 11.4221875 -3.814375 11.4221875 -3.625 9.8125 C-2.41176471 2.41176471 -2.41176471 2.41176471 0 0 Z " fill="#C1E9CE" transform="translate(488,778)"/>
<path d="M0 0 C2.64 0.33 5.28 0.66 8 1 C8.33 1.99 8.66 2.98 9 4 C10.32303717 4.3721042 11.65737935 4.70630173 13 5 C13.33 5.66 13.66 6.32 14 7 C14.804375 7.268125 15.60875 7.53625 16.4375 7.8125 C19 9 19 9 20.3125 11.625 C20.6528125 12.800625 20.6528125 12.800625 21 14 C16.69257852 12.65393079 13.64522052 10.32035709 10.13671875 7.59375 C7.36040245 5.52293272 4.44411975 3.748525 1.46875 1.98046875 C0.9840625 1.65691406 0.499375 1.33335937 0 1 C0 0.67 0 0.34 0 0 Z " fill="#27894A" transform="translate(1245,667)"/>
<path d="M0 0 C5.94 0 11.88 0 18 0 C18 0.66 18 1.32 18 2 C18.73605469 1.97679687 19.47210937 1.95359375 20.23046875 1.9296875 C21.20628906 1.91164063 22.18210937 1.89359375 23.1875 1.875 C24.15042969 1.85179687 25.11335938 1.82859375 26.10546875 1.8046875 C29.12812778 2.0086456 31.26769985 2.73125368 34 4 C30.19771173 5.33246128 26.98834931 4.77379461 23.046875 4.22265625 C22.38665344 4.13245712 21.72643188 4.042258 21.04620361 3.94932556 C18.9464164 3.66079984 16.84827477 3.36180707 14.75 3.0625 C13.32301267 2.86454112 11.89593006 2.66726772 10.46875 2.47070312 C6.97802775 1.98840572 3.48870362 1.49671288 0 1 C0 0.67 0 0.34 0 0 Z " fill="#C0E8CE" transform="translate(1084,442)"/>
<path d="M0 0 C0 0.33 0 0.66 0 1 C-1.65 1 -3.3 1 -5 1 C-4.67 1.66 -4.34 2.32 -4 3 C-1.68152126 3.7166207 0.65319703 4.38242027 3 5 C3.66 5.33 4.32 5.66 5 6 C5.33 6.99 5.66 7.98 6 9 C6.99 9 7.98 9 9 9 C9 9.66 9 10.32 9 11 C8.32582031 10.72414063 7.65164063 10.44828125 6.95703125 10.1640625 C3.5584527 8.82618085 0.12928907 7.59731761 -3.3125 6.375 C-3.95767578 6.14554688 -4.60285156 5.91609375 -5.26757812 5.6796875 C-6.84474179 5.1189182 -8.42232784 4.55933709 -10 4 C-9.67 3.01 -9.34 2.02 -9 1 C-5.8035914 -0.06546953 -3.34252724 -0.07427838 0 0 Z " fill="#278C48" transform="translate(1183,628)"/>
<path d="M0 0 C0.99 0.33 1.98 0.66 3 1 C3 1.66 3 2.32 3 3 C3.66 3 4.32 3 5 3 C5.2475 3.61875 5.495 4.2375 5.75 4.875 C6.82396211 7.15001528 6.82396211 7.15001528 9.0625 8 C11 9 11 9 11.75 11.125 C11.87375 12.053125 11.87375 12.053125 12 13 C9 13 9 13 6.51953125 10.8125 C5.62621094 9.884375 4.73289062 8.95625 3.8125 8 C2.91144531 7.071875 2.01039062 6.14375 1.08203125 5.1875 C0.39496094 4.465625 -0.29210938 3.74375 -1 3 C-0.67 2.01 -0.34 1.02 0 0 Z " fill="#1A8541" transform="translate(1312,716)"/>
<path d="M0 0 C0.8971875 0.309375 0.8971875 0.309375 1.8125 0.625 C1.14605469 1.0375 0.47960937 1.45 -0.20703125 1.875 C-7.08391089 6.18387004 -13.67949871 10.77861606 -20.1875 15.625 C-20.5175 14.635 -20.8475 13.645 -21.1875 12.625 C-20.1975 12.625 -19.2075 12.625 -18.1875 12.625 C-18.1875 11.965 -18.1875 11.305 -18.1875 10.625 C-15.1875 8.625 -15.1875 8.625 -12.1875 8.625 C-12.1875 7.635 -12.1875 6.645 -12.1875 5.625 C-11.5275 5.625 -10.8675 5.625 -10.1875 5.625 C-10.1875 4.965 -10.1875 4.305 -10.1875 3.625 C-8.8675 3.625 -7.5475 3.625 -6.1875 3.625 C-5.8575 2.965 -5.5275 2.305 -5.1875 1.625 C-2.1875 -0.375 -2.1875 -0.375 0 0 Z " fill="#D6F4E0" transform="translate(699.1875,534.375)"/>
<path d="M0 0 C0.99550338 3.12771631 0.94972068 5.13749445 0.1875 8.3125 C-1.31959277 15.1508053 -2.12973632 22.05640679 -3 29 C-3.33 29 -3.66 29 -4 29 C-4.19393875 26.85473901 -4.37998676 24.70876323 -4.5625 22.5625 C-4.71912109 20.77005859 -4.71912109 20.77005859 -4.87890625 18.94140625 C-4.91886719 17.97074219 -4.95882813 17.00007812 -5 16 C-4.67 15.67 -4.34 15.34 -4 15 C-3.60430892 12.98688551 -3.25747809 10.96402792 -2.9375 8.9375 C-2.67259766 7.28041016 -2.67259766 7.28041016 -2.40234375 5.58984375 C-2.26957031 4.73519531 -2.13679688 3.88054688 -2 3 C-1.34 3 -0.68 3 0 3 C0 2.01 0 1.02 0 0 Z " fill="#ADDBBA" transform="translate(447,904)"/>
<path d="M0 0 C-1.45706726 0.50367757 -2.91570096 1.00282556 -4.375 1.5 C-5.18710937 1.7784375 -5.99921875 2.056875 -6.8359375 2.34375 C-9 3 -9 3 -11 3 C-11 3.66 -11 4.32 -11 5 C-11.75925781 5.19335938 -12.51851562 5.38671875 -13.30078125 5.5859375 C-14.29464844 5.84632813 -15.28851562 6.10671875 -16.3125 6.375 C-17.79169922 6.75785156 -17.79169922 6.75785156 -19.30078125 7.1484375 C-22.1805816 7.91913174 -22.1805816 7.91913174 -25 10 C-27.1875 9.625 -27.1875 9.625 -29 9 C-26.00421957 7.69839129 -23.00268393 6.41059356 -20 5.125 C-19.16082031 4.76019531 -18.32164062 4.39539063 -17.45703125 4.01953125 C-3.69554132 -1.84777066 -3.69554132 -1.84777066 0 0 Z " fill="#B7E6C7" transform="translate(888,626)"/>
<path d="M0 0 C3.33316277 -0.08811914 6.66602047 -0.14076197 10 -0.1875 C10.93457031 -0.21263672 11.86914062 -0.23777344 12.83203125 -0.26367188 C18.95913725 -0.32794222 23.40193858 0.48483325 29 3 C25.52192588 4.13874184 22.74841044 3.90158296 19.140625 3.44140625 C17.46806641 3.23354492 17.46806641 3.23354492 15.76171875 3.02148438 C14.60285156 2.87001953 13.44398437 2.71855469 12.25 2.5625 C11.07566406 2.41490234 9.90132812 2.26730469 8.69140625 2.11523438 C5.79337432 1.75003523 2.8963788 1.37805032 0 1 C0 0.67 0 0.34 0 0 Z " fill="#41965E" transform="translate(1056,604)"/>
<path d="M0 0 C-2.36377871 2.73700693 -4.62202381 3.78739316 -8 5 C-8.99 5.495 -8.99 5.495 -10 6 C-12.6723621 6.13415472 -15.32250488 6.04318541 -18 6 C-14.63396829 3.17253336 -11.05267275 1.6510889 -7 0 C-4.3333581 -1.33332095 -2.83319697 -0.67102033 0 0 Z " fill="#218845" transform="translate(786,491)"/>
<path d="M0 0 C0.33 0 0.66 0 1 0 C1.01981934 0.65484375 1.03963867 1.3096875 1.06005859 1.984375 C1.15610522 4.98994448 1.26545784 7.99489331 1.375 11 C1.4059375 12.02996094 1.436875 13.05992188 1.46875 14.12109375 C1.64480347 18.72782627 1.87154771 23.04300523 3.1015625 27.5 C3.96943715 30.88093777 3.98181173 31.85544409 3 35 C2.34 34.67 1.68 34.34 1 34 C-0.2157733 26.66712835 -0.1181276 19.35308698 -0.0625 11.9375 C-0.05798828 10.78572266 -0.05347656 9.63394531 -0.04882812 8.44726562 C-0.03714426 5.63145482 -0.02076281 2.81575602 0 0 Z " fill="#A2D5B5" transform="translate(904,1015)"/>
<path d="M0 0 C0.33 0 0.66 0 1 0 C1.42685903 6.29617063 0.97812894 8.05747616 -3 13 C-3.63329688 15.98916126 -3.8671355 18.95075968 -4 22 C-4.66 22 -5.32 22 -6 22 C-6.66 22.66 -7.32 23.32 -8 24 C-6.45071556 15.47893558 -3.41300522 7.93328312 0 0 Z " fill="#2B894A" transform="translate(477,808)"/>
<path d="M0 0 C0.66 0 1.32 0 2 0 C0.46906512 4.67199091 -2.10757395 8.02170005 -5.125 11.8125 C-5.82689453 12.7087207 -5.82689453 12.7087207 -6.54296875 13.62304688 C-7.69005565 15.08616792 -8.84431234 16.54366297 -10 18 C-11 15 -11 15 -9.75 12.375 C-8 10 -8 10 -5 9 C-4.28752268 7.3523962 -3.62599617 5.68236471 -3 4 C-1.5 1.6875 -1.5 1.6875 0 0 Z " fill="#DFF9E8" transform="translate(548,676)"/>
<path d="M0 0 C-0.33 0.66 -0.66 1.32 -1 2 C1.31 2 3.62 2 6 2 C6 2.66 6 3.32 6 4 C7.65 3.67 9.3 3.34 11 3 C11 3.99 11 4.98 11 6 C11.99 6.33 12.98 6.66 14 7 C12 8 12 8 9.93701172 7.47094727 C9.10959473 7.17244873 8.28217773 6.8739502 7.4296875 6.56640625 C6.53378906 6.24736328 5.63789062 5.92832031 4.71484375 5.59960938 C3.77769531 5.25736328 2.84054687 4.91511719 1.875 4.5625 C0.93011719 4.22412109 -0.01476563 3.88574219 -0.98828125 3.53710938 C-3.32802766 2.6981094 -5.66502009 1.85215708 -8 1 C-8 0.67 -8 0.34 -8 0 C-4.71303767 -0.79953138 -3.28976808 -1.09658936 0 0 Z " fill="#268A48" transform="translate(1154,621)"/>
<path d="M0 0 C6.09304549 3.18756546 11.61114807 6.72709561 17 11 C16.67 11.66 16.34 12.32 16 13 C14.02 12.34 12.04 11.68 10 11 C10 10.01 10 9.02 10 8 C9.01 8 8.02 8 7 8 C7 7.34 7 6.68 7 6 C4.36095629 4.58622659 1.92879371 3.62759865 -1 3 C-0.67 2.01 -0.34 1.02 0 0 Z " fill="#1A803F" transform="translate(1348,539)"/>
<path d="M0 0 C0.33 0 0.66 0 1 0 C1.29973431 6.89388918 0.89839291 14.15241063 -3 20 C-3.66 20 -4.32 20 -5 20 C-4.35346673 13.04976736 -2.13972752 6.61822697 0 0 Z " fill="#C9EED3" transform="translate(619,896)"/>
<path d="M0 0 C3.70605319 3.49835844 6.52199492 7.00850064 9.3125 11.3125 C10.00988281 12.38113281 10.70726562 13.44976563 11.42578125 14.55078125 C11.94527344 15.35902344 12.46476562 16.16726563 13 17 C12.34 17.66 11.68 18.32 11 19 C8.22017379 17.6100869 8.12536659 15.81341647 7 13 C6.34 12.67 5.68 12.34 5 12 C4.375 8.9375 4.375 8.9375 4 6 C3.01 5.67 2.02 5.34 1 5 C0.67 3.35 0.34 1.7 0 0 Z " fill="#28884A" transform="translate(1488,671)"/>
<path d="M0 0 C0.33 1.32 0.66 2.64 1 4 C0.34 4 -0.32 4 -1 4 C-1 4.66 -1 5.32 -1 6 C-2.64333504 7.03789581 -4.31243867 8.03567924 -6 9 C-6.66 9.66 -7.32 10.32 -8 11 C-9.98821313 11.39764263 -11.98944339 11.73775349 -14 12 C-9.73412126 7.45890328 -4.96387672 3.75264754 0 0 Z " fill="#248846" transform="translate(663,561)"/>
<path d="M0 0 C0.33 0.66 0.66 1.32 1 2 C-4.91684902 10.66520788 -4.91684902 10.66520788 -9.4375 12.0625 C-10.7059375 12.0315625 -10.7059375 12.0315625 -12 12 C-8.32167983 7.47384007 -4.58913637 3.60575001 0 0 Z " fill="#CBEDD4" transform="translate(729,720)"/>
<path d="M0 0 C0.33 0 0.66 0 1 0 C1.53383934 6.53953187 0.60393954 7.69310581 -3 14 C-8.61 13.67 -14.22 13.34 -20 13 C-20 12.67 -20 12.34 -20 12 C-14.39 12 -8.78 12 -3 12 C-2.67 10.02 -2.34 8.04 -2 6 C-1.36694179 3.98910922 -0.70905938 1.98536627 0 0 Z " fill="#EEFEF5" transform="translate(612,921)"/>
<path d="M0 0 C2.31 0.33 4.62 0.66 7 1 C7 1.66 7 2.32 7 3 C7.53625 3.103125 8.0725 3.20625 8.625 3.3125 C11.61824583 4.1789659 14.21768305 5.60884152 17 7 C17.66 7 18.32 7 19 7 C18.67 7.99 18.34 8.98 18 10 C13.48548686 8.6510689 9.67722719 6.83381706 5.625 4.4375 C4.56539062 3.81746094 3.50578125 3.19742188 2.4140625 2.55859375 C1.61742187 2.04425781 0.82078125 1.52992188 0 1 C0 0.67 0 0.34 0 0 Z " fill="#348D51" transform="translate(1221,653)"/>
<path d="M0 0 C4.52804747 -0.07674657 8.58064313 -0.0749787 13 1 C14.2375 1.1546875 14.2375 1.1546875 15.5 1.3125 C18.68102614 2.18728219 20.55370408 3.83328076 23 6 C15.09290669 5.354523 7.60866033 3.13002861 0 1 C0 0.67 0 0.34 0 0 Z " fill="#2D8A4E" transform="translate(1123,615)"/>
<path d="M0 0 C0.66 0.33 1.32 0.66 2 1 C2 1.66 2 2.32 2 3 C-0.45570175 4.33838733 -2.91429916 5.67086232 -5.375 7 C-6.42300781 7.57234375 -6.42300781 7.57234375 -7.4921875 8.15625 C-12.7734375 11 -12.7734375 11 -15 11 C-15 10.01 -15 9.02 -15 8 C-11.535 7.505 -11.535 7.505 -8 7 C-7.67 6.01 -7.34 5.02 -7 4 C-4.78406817 2.28945613 -2.53809348 1.24678276 0 0 Z " fill="#17803D" transform="translate(830,645)"/>
<path d="M0 0 C0.33 0 0.66 0 1 0 C0.53680089 4.72463088 -0.09891706 8.17057052 -3 12 C-3.66 12 -4.32 12 -5 12 C-5.33 13.32 -5.66 14.64 -6 16 C-6.66 16 -7.32 16 -8 16 C-6.25709852 9.75106054 -4.09190897 5.0610453 0 0 Z " fill="#338E52" transform="translate(921,970)"/>
<path d="M0 0 C0.99 0.33 1.98 0.66 3 1 C2.27167969 1.54269531 1.54335938 2.08539062 0.79296875 2.64453125 C-2.12923313 5.10898962 -4.32749907 7.68641223 -6.6875 10.6875 C-10.79234973 15.89617486 -10.79234973 15.89617486 -13 17 C-13 16.01 -13 15.02 -13 14 C-12.34 14 -11.68 14 -11 14 C-10.67 12.35 -10.34 10.7 -10 9 C-9.01 9 -8.02 9 -7 9 C-6.71125 8.21625 -6.4225 7.4325 -6.125 6.625 C-5 4 -5 4 -3 2 C-2.01 2 -1.02 2 0 2 C0 1.34 0 0.68 0 0 Z " fill="#D6F6E0" transform="translate(934,953)"/>
<path d="M0 0 C0.33 0 0.66 0 1 0 C0.75793258 5.80961808 -0.92231649 8.75278424 -4.625 13.203125 C-6.2010396 15.06081063 -6.2010396 15.06081063 -7 18 C-7.66 18 -8.32 18 -9 18 C-7.6510689 13.48548686 -5.83381706 9.67722719 -3.4375 5.625 C-2.81746094 4.56539062 -2.19742188 3.50578125 -1.55859375 2.4140625 C-0.78708984 1.21910156 -0.78708984 1.21910156 0 0 Z " fill="#D3F2DD" transform="translate(662,803)"/>
<path d="M0 0 C3.62343383 3.78813537 4.04524538 8.00589889 5 13 C0.71 13 -3.58 13 -8 13 C-8 12.67 -8 12.34 -8 12 C-2.555 11.505 -2.555 11.505 3 11 C1.9790625 9.1128125 1.9790625 9.1128125 0.9375 7.1875 C-0.22265625 5.04296875 -0.22265625 5.04296875 -1 3 C-0.67 2.01 -0.34 1.02 0 0 Z " fill="#268447" transform="translate(1541,753)"/>
<path d="M0 0 C2.625 0.9375 2.625 0.9375 5 2 C5 2.66 5 3.32 5 4 C6.32 4 7.64 4 9 4 C9.33 6.31 9.66 8.62 10 11 C1.55353075 4.84965831 1.55353075 4.84965831 -2 1 C-1.34 0.67 -0.68 0.34 0 0 Z " fill="#2A8F4B" transform="translate(1287,695)"/>
<path d="M0 0 C6.51010886 -0.3755832 6.51010886 -0.3755832 8.875 1.4375 C12.20953218 3.8893619 15.95509711 3.74935431 20 4 C20 5.32 20 6.64 20 8 C13.14381674 6.07443364 6.56747868 3.7527517 0 1 C0 0.67 0 0.34 0 0 Z " fill="#C9EDD7" transform="translate(1216,472)"/>
<path d="M0 0 C4.97209562 1.76429199 9.43438061 4.3939166 14 7 C14 7.66 14 8.32 14 9 C14.66 9.33 15.32 9.66 16 10 C11.85701333 9.40165275 8.81805623 7.99335715 5.1875 5.9375 C4.21167969 5.38964844 3.23585938 4.84179688 2.23046875 4.27734375 C1.49441406 3.85582031 0.75835938 3.43429687 0 3 C0 2.01 0 1.02 0 0 Z " fill="#218343" transform="translate(1332,529)"/>
<path d="M0 0 C0 3 0 3 -1.3203125 4.6484375 C-1.91585938 5.21820312 -2.51140625 5.78796875 -3.125 6.375 C-4.07826172 7.28958984 -4.07826172 7.28958984 -5.05078125 8.22265625 C-7.6315605 10.5758718 -10.29134292 12.79527912 -13 15 C-13.66 15.66 -14.32 16.32 -15 17 C-15.99 16.67 -16.98 16.34 -18 16 C-12.04288271 10.61662147 -6.0614973 5.26571414 0 0 Z " fill="#2C2C2C" transform="translate(1313,1327)"/>
<path d="M0 0 C0.671875 1.73828125 0.671875 1.73828125 1 4 C-0.109375 6.10546875 -0.109375 6.10546875 -1.75 8.1875 C-2.28109375 8.88230469 -2.8121875 9.57710937 -3.359375 10.29296875 C-5 12 -5 12 -8 13 C-7.38768269 9.59398498 -6.1179601 7.52613637 -4 4.8125 C-3.195625 3.77029297 -3.195625 3.77029297 -2.375 2.70703125 C-1 1 -1 1 0 0 Z " fill="#228745" transform="translate(567,655)"/>
<path d="M0 0 C-3.10629156 1.68900014 -6.15205051 2.70626667 -9.5625 3.625 C-10.51253906 3.88539063 -11.46257813 4.14578125 -12.44140625 4.4140625 C-15 5 -15 5 -18 5 C-18 4.34 -18 3.68 -18 3 C-16.68 3 -15.36 3 -14 3 C-14 2.34 -14 1.68 -14 1 C-8.83430559 -0.79217969 -5.48946087 -1.12029814 0 0 Z " fill="#1E823F" transform="translate(930,612)"/>
<path d="M0 0 C7.52592433 0.6377902 14.67098882 2.19889833 22 4 C19.41718025 5.71776051 18.31050043 6.05102932 15.1953125 5.5390625 C13.67550781 5.08660156 13.67550781 5.08660156 12.125 4.625 C7.9211177 3.38856403 4.38906871 2.82967793 0 3 C0 2.01 0 1.02 0 0 Z " fill="#20813D" transform="translate(1136,451)"/>
<path d="M0 0 C0.99 0.33 1.98 0.66 3 1 C0.36 5.62 -2.28 10.24 -5 15 C-5.33 15 -5.66 15 -6 15 C-6 13.35 -6 11.7 -6 10 C-5.34 10 -4.68 10 -4 10 C-4 7.69 -4 5.38 -4 3 C-2.68 2.67 -1.36 2.34 0 2 C0 1.34 0 0.68 0 0 Z " fill="#1E8442" transform="translate(661,800)"/>
<path d="M0 0 C0.33 0.66 0.66 1.32 1 2 C1.825 2.28875 2.65 2.5775 3.5 2.875 C4.325 3.24625 5.15 3.6175 6 4 C6.625 6.0625 6.625 6.0625 7 8 C7.99 8.33 8.98 8.66 10 9 C9.01 9.66 8.02 10.32 7 11 C4.03 8.03 1.06 5.06 -2 2 C-1.34 1.34 -0.68 0.68 0 0 Z " fill="#168239" transform="translate(1325,729)"/>
<path d="M0 0 C-4.77513836 4.28115853 -10.36156231 7.03759841 -16 10 C-16 9.01 -16 8.02 -16 7 C-13.46815512 4.64276511 -12.52809907 4 -9 4 C-9 3.34 -9 2.68 -9 2 C-5.86501708 0.14223235 -3.62528568 -0.20140476 0 0 Z " fill="#1A803E" transform="translate(810,659)"/>
<path d="M0 0 C-1.56727453 1.84170838 -2.50649641 2.88776232 -4.90112305 3.43237305 C-5.94586792 3.47164917 -5.94586792 3.47164917 -7.01171875 3.51171875 C-7.76904297 3.54716797 -8.52636719 3.58261719 -9.30664062 3.61914062 C-10.09232422 3.64169922 -10.87800781 3.66425781 -11.6875 3.6875 C-12.88342773 3.73874023 -12.88342773 3.73874023 -14.10351562 3.79101562 C-16.06851904 3.87338104 -18.03423696 3.93837067 -20 4 C-17.0228196 2.01521307 -15.4358615 1.54593381 -12 0.9375 C-2.49429737 -0.77409229 -2.49429737 -0.77409229 0 0 Z " fill="#2D894E" transform="translate(906,452)"/>
<path d="M0 0 C0.66 0.66 1.32 1.32 2 2 C1.38080922 3.46080933 0.75443308 4.91857455 0.125 6.375 C-0.22304688 7.18710937 -0.57109375 7.99921875 -0.9296875 8.8359375 C-2 11 -2 11 -4 13 C-4 4.625 -4 4.625 0 0 Z " fill="#218742" transform="translate(639,841)"/>
<path d="M0 0 C1.98 0 3.96 0 6 0 C2.29909479 3.9252025 -1.54959656 6.94580156 -6 10 C-6 8.68 -6 7.36 -6 6 C-3.5625 3.875 -3.5625 3.875 -1 2 C-0.67 1.34 -0.34 0.68 0 0 Z " fill="#1D8442" transform="translate(750,696)"/>
<path d="M0 0 C0.66 0.33 1.32 0.66 2 1 C1.375 2.875 1.375 2.875 0 5 C-3.125 6.25 -3.125 6.25 -6 7 C-6 7.99 -6 8.98 -6 10 C-7.98 10 -9.96 10 -12 10 C-8.40945767 6.11024581 -4.26101118 3.10267805 0 0 Z " fill="#29894A" transform="translate(694,538)"/>
<path d="M0 0 C3.96 0 7.92 0 12 0 C8.73795243 1.63102378 5.97278684 2.70958612 2.5 3.6875 C1.5615625 3.95949219 0.623125 4.23148437 -0.34375 4.51171875 C-3.00766466 5.00140894 -4.47611372 4.88693174 -7 4 C-6.67 3.34 -6.34 2.68 -6 2 C-4.02 2 -2.04 2 0 2 C0 1.34 0 0.68 0 0 Z " fill="#D2F2DD" transform="translate(870,456)"/>
<path d="M0 0 C0.6875 1.625 0.6875 1.625 1 4 C0.05698138 6.02749004 -0.95548562 8.02288349 -2 10 C-3.08525569 12.97350327 -4.0536411 15.97970564 -5 19 C-5.33 19 -5.66 19 -6 19 C-6 16.69 -6 14.38 -6 12 C-5.67 12 -5.34 12 -5 12 C-4.34 8.7 -3.68 5.4 -3 2 C-2.34 2 -1.68 2 -1 2 C-0.67 1.34 -0.34 0.68 0 0 Z " fill="#4B9E69" transform="translate(624,880)"/>
<path d="M0 0 C1.48831242 0.00667405 2.97660807 0.01863442 4.46484375 0.03515625 C5.22345703 0.03966797 5.98207031 0.04417969 6.76367188 0.04882812 C8.64326246 0.06064945 10.52281274 0.07858547 12.40234375 0.09765625 C12.40234375 0.42765625 12.40234375 0.75765625 12.40234375 1.09765625 C4.07932325 2.2406844 -4.22816802 3.34932554 -12.59765625 4.09765625 C-11.93765625 3.76765625 -11.27765625 3.43765625 -10.59765625 3.09765625 C-10.59765625 2.43765625 -10.59765625 1.77765625 -10.59765625 1.09765625 C-9.14359375 1.12859375 -9.14359375 1.12859375 -7.66015625 1.16015625 C-3.93386401 1.08410947 -3.91768378 0.10634321 0 0 Z " fill="#328D53" transform="translate(968.59765625,603.90234375)"/>
<path d="M0 0 C4.21775732 1.35525536 8.29421322 2.90200114 12.375 4.625 C13.96441406 5.29402344 13.96441406 5.29402344 15.5859375 5.9765625 C16.38257813 6.31429688 17.17921875 6.65203125 18 7 C16.24609375 8.109375 16.24609375 8.109375 14 9 C12.03515625 8.390625 12.03515625 8.390625 10.0625 7.25 C7.70300735 5.93379048 5.61827198 4.86192816 3.0625 3.9375 C2.381875 3.628125 1.70125 3.31875 1 3 C0.67 2.01 0.34 1.02 0 0 Z " fill="#DEFAE6" transform="translate(954,1108)"/>
<path d="M0 0 C0.66 0 1.32 0 2 0 C1.43040847 3.62613199 0.07625466 5.25517741 -2.5625 7.75 C-3.52349609 8.67039062 -3.52349609 8.67039062 -4.50390625 9.609375 C-4.99761719 10.06828125 -5.49132812 10.5271875 -6 11 C-6.66 10.67 -7.32 10.34 -8 10 C-7.67 8.35 -7.34 6.7 -7 5 C-5.02 4.67 -3.04 4.34 -1 4 C-0.67 2.68 -0.34 1.36 0 0 Z " fill="#16823A" transform="translate(713,732)"/>
<path d="M0 0 C0.66 0 1.32 0 2 0 C2 0.66 2 1.32 2 2 C2.99 2.33 3.98 2.66 5 3 C5.33 4.98 5.66 6.96 6 9 C6.66 9 7.32 9 8 9 C8 9.66 8 10.32 8 11 C8.66 11 9.32 11 10 11 C10.66 13.31 11.32 15.62 12 18 C9.27573689 15.64722731 8.1858237 13.37503669 7 10 C6.34 10 5.68 10 5 10 C3.35 6.7 1.7 3.4 0 0 Z " fill="#C1EACF" transform="translate(1508,698)"/>
<path d="M0 0 C-2.60130627 1.1734316 -5.20568508 2.33892508 -7.8125 3.5 C-8.55048828 3.83386719 -9.28847656 4.16773438 -10.04882812 4.51171875 C-10.76103516 4.82753906 -11.47324219 5.14335938 -12.20703125 5.46875 C-12.8616333 5.76201172 -13.51623535 6.05527344 -14.19067383 6.35742188 C-16 7 -16 7 -19 7 C-18.67 6.34 -18.34 5.68 -18 5 C-14.9375 4.375 -14.9375 4.375 -12 4 C-11.67 3.01 -11.34 2.02 -11 1 C-6.90275533 -0.54613006 -4.18142349 -1.29227216 0 0 Z " fill="#248344" transform="translate(870,631)"/>
<path d="M0 0 C0.99 0.33 1.98 0.66 3 1 C0.36 5.62 -2.28 10.24 -5 15 C-6.19568017 11.41295948 -5.43725845 10.11669923 -3.90234375 6.78515625 C-2.71981989 4.44570429 -1.40693323 2.21089507 0 0 Z " fill="#DDF8E4" transform="translate(509,736)"/>
<path d="M0 0 C-0.25 1.875 -0.25 1.875 -1 4 C-4.01508239 6.15363028 -6.40385995 6 -10 6 C-10.66 6.66 -11.32 7.32 -12 8 C-12.66 7.34 -13.32 6.68 -14 6 C-12.04414675 4.99515796 -10.08523763 3.99626195 -8.125 3 C-6.48917969 2.1646875 -6.48917969 2.1646875 -4.8203125 1.3125 C-2 0 -2 0 0 0 Z " fill="#319055" transform="translate(768,497)"/>
<path d="M0 0 C0.66 0.33 1.32 0.66 2 1 C1.47731534 3.76276177 0.89130413 6.3260876 0 9 C-0.66 9 -1.32 9 -2 9 C-2.33 9.99 -2.66 10.98 -3 12 C-3.125 4.375 -3.125 4.375 -2 1 C-1.34 0.67 -0.68 0.34 0 0 Z " fill="#1F8842" transform="translate(451,896)"/>
<path d="M0 0 C0.66 0.66 1.32 1.32 2 2 C-0.97 6.29 -3.94 10.58 -7 15 C-8 11 -8 11 -6.85546875 8.640625 C-6.30503906 7.85171875 -5.75460937 7.0628125 -5.1875 6.25 C-4.37345703 5.05117188 -4.37345703 5.05117188 -3.54296875 3.828125 C-3.03378906 3.22484375 -2.52460937 2.6215625 -2 2 C-1.34 2 -0.68 2 0 2 C0 1.34 0 0.68 0 0 Z " fill="#1E813F" transform="translate(685,765)"/>
<path d="M0 0 C0.33 1.32 0.66 2.64 1 4 C-1.64 6.31 -4.28 8.62 -7 11 C-7.66 10.67 -8.32 10.34 -9 10 C-6.03 6.7 -3.06 3.4 0 0 Z " fill="#308D4F" transform="translate(615,602)"/>
<path d="M0 0 C0.66 0.99 1.32 1.98 2 3 C-0.06242617 3.02717692 -2.12495703 3.0464758 -4.1875 3.0625 C-5.33605469 3.07410156 -6.48460937 3.08570313 -7.66796875 3.09765625 C-10.59300586 3.01192832 -13.16316291 2.67849023 -16 2 C-16 1.67 -16 1.34 -16 1 C-4.94565217 -0.40372671 -4.94565217 -0.40372671 0 0 Z " fill="#339152" transform="translate(1048,601)"/>
<path d="M0 0 C4.05281712 1.22527029 7.44360764 2.69880494 11 5 C10.67 5.66 10.34 6.32 10 7 C7.36 6.67 4.72 6.34 2 6 C1.34 4.02 0.68 2.04 0 0 Z " fill="#138238" transform="translate(1290,505)"/>
<path d="M0 0 C-4.20872298 2.17692568 -7.43483879 3.12422287 -12.1875 3.0625 C-13.53908203 3.04896484 -13.53908203 3.04896484 -14.91796875 3.03515625 C-15.60503906 3.02355469 -16.29210937 3.01195312 -17 3 C-11.97945901 -0.34702732 -5.88559684 -1.89857963 0 0 Z " fill="#278949" transform="translate(887,457)"/>
<path d="M0 0 C1 2 1 2 0.36328125 4.09375 C0.01652344 4.8878125 -0.33023438 5.681875 -0.6875 6.5 C-1.02136719 7.2940625 -1.35523438 8.088125 -1.69921875 8.90625 C-3.19558554 11.31481637 -4.3924752 11.98992724 -7 13 C-5.58832253 7.73829306 -3.25149768 4.27828642 0 0 Z " fill="#258746" transform="translate(546,682)"/>
<path d="M0 0 C-5.83712355 2.72399099 -11.76559832 4.41039668 -18 6 C-17.67 5.01 -17.34 4.02 -17 3 C-14.19921875 1.796875 -14.19921875 1.796875 -10.6875 0.75 C-9.53636719 0.39421875 -8.38523437 0.0384375 -7.19921875 -0.328125 C-4.21761114 -0.954299 -2.7876761 -1.07377154 0 0 Z " fill="#D3F2DD" transform="translate(835,470)"/>
<path d="M0 0 C6.04801071 0.54981916 11.30601106 1.90429574 17 4 C12.5914079 5.4695307 8.51024726 4.98915406 4 4 C1.375 1.9375 1.375 1.9375 0 0 Z " fill="#298749" transform="translate(1193,466)"/>
<path d="M0 0 C0.66 0 1.32 0 2 0 C1.54971412 2.27244276 1.08949383 4.54291877 0.625 6.8125 C0.36976563 8.07707031 0.11453125 9.34164062 -0.1484375 10.64453125 C-1 14 -1 14 -3 17 C-2.22095672 5.47835991 -2.22095672 5.47835991 0 0 Z " fill="#228343" transform="translate(613,910)"/>
<path d="M0 0 C0.66 0.66 1.32 1.32 2 2 C-0.31 4.97 -2.62 7.94 -5 11 C-5.66 10.67 -6.32 10.34 -7 10 C-4.85714286 3.57142857 -4.85714286 3.57142857 -1 1 C-0.67 0.67 -0.34 0.34 0 0 Z " fill="#19843D" transform="translate(696,751)"/>
<path d="M0 0 C0.99 0 1.98 0 3 0 C1.23570801 4.97209562 -1.3939166 9.43438061 -4 14 C-4.33 14 -4.66 14 -5 14 C-5 12.35 -5 10.7 -5 9 C-4.01 8.67 -3.02 8.34 -2 8 C-1.7834375 6.576875 -1.7834375 6.576875 -1.5625 5.125 C-1 2 -1 2 0 0 Z " fill="#DDF7E4" transform="translate(517,721)"/>
<path d="M0 0 C1.32 0.66 2.64 1.32 4 2 C0.37 4.31 -3.26 6.62 -7 9 C-7.33 8.01 -7.66 7.02 -8 6 C-6.68 6 -5.36 6 -4 6 C-3.8453125 5.071875 -3.8453125 5.071875 -3.6875 4.125 C-3 2 -3 2 0 0 Z " fill="#1B8340" transform="translate(775,678)"/>
<path d="M0 0 C2.171875 0.921875 2.171875 0.921875 4 2 C2.06891037 3.03290841 0.129882 4.05098672 -1.8125 5.0625 C-2.89144531 5.63097656 -3.97039063 6.19945312 -5.08203125 6.78515625 C-8 8 -8 8 -11 7 C-8 5 -8 5 -5 5 C-5 4.34 -5 3.68 -5 3 C-2.75 1.25 -2.75 1.25 0 0 Z " fill="#D7F5E0" transform="translate(960,935)"/>
<path d="M0 0 C0.33 0 0.66 0 1 0 C1.33266291 6.20970773 0.45029331 10.28264895 -2 16 C-2.33 16 -2.66 16 -3 16 C-2.52013969 10.43109483 -1.70084819 5.32932432 0 0 Z " fill="#268646" transform="translate(461,854)"/>
<path d="M0 0 C0.99 0.33 1.98 0.66 3 1 C0.525 6.94 0.525 6.94 -2 13 C-2.33 13 -2.66 13 -3 13 C-3.31563182 7.73946963 -2.66590937 4.55426184 0 0 Z " fill="#137F34" transform="translate(631,857)"/>
<path d="M0 0 C0.66 0.99 1.32 1.98 2 3 C1.01 4.98 0.02 6.96 -1 9 C-1.66 9 -2.32 9 -3 9 C-3.33 11.31 -3.66 13.62 -4 16 C-4.66 16 -5.32 16 -6 16 C-4.43551329 10.3856009 -2.83604813 5.13189662 0 0 Z " fill="#268646" transform="translate(489,780)"/>
<path d="M0 0 C0.66 0.33 1.32 0.66 2 1 C1.67 1.99 1.34 2.98 1 4 C1 4.99 1 5.98 1 7 C-0.875 9.1875 -0.875 9.1875 -3 11 C-3.66 11 -4.32 11 -5 11 C-3.77472971 6.94718288 -2.30119506 3.55639236 0 0 Z " fill="#329053" transform="translate(506,746)"/>
<path d="M0 0 C0.66 0.33 1.32 0.66 2 1 C1.12499183 2.34709162 0.22409067 3.67738986 -0.6875 5 C-1.18636719 5.7425 -1.68523438 6.485 -2.19921875 7.25 C-4 9 -4 9 -6.70703125 9.25 C-7.46371094 9.1675 -8.22039063 9.085 -9 9 C-6.31941902 5.42589203 -3.57410797 2.68058098 0 0 Z " fill="#D2F0DA" transform="translate(752,699)"/>
<path d="M0 0 C1.9375 0.3125 1.9375 0.3125 4 1 C4.33 1.99 4.66 2.98 5 4 C6.40105576 5.42857119 6.40105576 5.42857119 8.0625 6.6875 C9.031875 7.450625 10.00125 8.21375 11 9 C10.67 10.32 10.34 11.64 10 13 C8.33036458 11.02327092 6.66419927 9.0437967 5 7.0625 C4.52304688 6.49853516 4.04609375 5.93457031 3.5546875 5.35351562 C0 1.11328125 0 1.11328125 0 0 Z " fill="#D7F7E5" transform="translate(1469,646)"/>
<path d="M0 0 C3.59905908 0.55550695 4.99909799 1.74887248 7.25 4.5625 C8.03117187 5.52349609 8.03117187 5.52349609 8.828125 6.50390625 C9.21484375 6.99761719 9.6015625 7.49132812 10 8 C6.14354522 6.86059291 2.93494171 5.82205934 0 3 C0 2.01 0 1.02 0 0 Z " fill="#2B8A4C" transform="translate(1448,626)"/>
<path d="M0 0 C0.99 0 1.98 0 3 0 C2.67 1.32 2.34 2.64 2 4 C2.99 4 3.98 4 5 4 C6.60355101 7.50776784 7.22036864 10.14354879 7 14 C3.94998169 10.33997803 0 4.92148529 0 0 Z " fill="#28884B" transform="translate(910,1056)"/>
<path d="M0 0 C4.07763771 2.86536704 6.02677065 5.43041625 8 10 C7.01 10.495 7.01 10.495 6 11 C5.34 10.67 4.68 10.34 4 10 C4 9.34 4 8.68 4 8 C3.34 8 2.68 8 2 8 C1.34 5.36 0.68 2.72 0 0 Z " fill="#268543" transform="translate(1480,661)"/>
<path d="M0 0 C2.97 0 5.94 0 9 0 C9 1.32 9 2.64 9 4 C9.99 4 10.98 4 12 4 C12 4.66 12 5.32 12 6 C7.76570244 4.68938409 3.92592596 3.05643741 0 1 C0 0.67 0 0.34 0 0 Z " fill="#39955C" transform="translate(1203,644)"/>
<path d="M0 0 C0.66 0.66 1.32 1.32 2 2 C1.86328125 4.12890625 1.86328125 4.12890625 1.3125 6.5625 C1.14363281 7.36816406 0.97476563 8.17382812 0.80078125 9.00390625 C0.53652344 9.66261719 0.27226563 10.32132813 0 11 C-0.99 11.33 -1.98 11.66 -3 12 C-2.40075776 7.80530429 -1.42500059 3.99000166 0 0 Z " fill="#29874A" transform="translate(911,988)"/>
<path d="M0 0 C0 3.4682737 -0.87317501 5.91266487 -2 9.1875 C-2.37125 10.27417969 -2.7425 11.36085938 -3.125 12.48046875 C-3.41375 13.31191406 -3.7025 14.14335938 -4 15 C-4.33 15 -4.66 15 -5 15 C-4.93989582 13.06164034 -4.85108283 11.12415509 -4.75 9.1875 C-4.70359375 8.10855469 -4.6571875 7.02960937 -4.609375 5.91796875 C-4 3 -4 3 -1.953125 1.11328125 C-0.98632812 0.56220703 -0.98632812 0.56220703 0 0 Z " fill="#D2F2DB" transform="translate(912,985)"/>
<path d="M0 0 C-3.92631909 3.01017797 -5.66119077 4.20070404 -10.625 3.5625 C-11.85089844 3.40974609 -11.85089844 3.40974609 -13.1015625 3.25390625 C-13.72804688 3.17011719 -14.35453125 3.08632813 -15 3 C-11.00349459 -0.99650541 -5.31261102 -0.09004425 0 0 Z " fill="#379055" transform="translate(989,931)"/>
<path d="M0 0 C0.33 0 0.66 0 1 0 C1.28571429 7.42857143 1.28571429 7.42857143 -1 11 C-1.99 10.34 -2.98 9.68 -4 9 C-2.68 6.03 -1.36 3.06 0 0 Z " fill="#248A48" transform="translate(500,757)"/>
<path d="M0 0 C9.59453303 4.03872437 9.59453303 4.03872437 13 7 C9.07589463 6.45245041 5.52484076 5.86033262 2 4 C0.859375 1.92578125 0.859375 1.92578125 0 0 Z " fill="#E0F8E8" transform="translate(1208,647)"/>
<path d="M0 0 C0.33 0.66 0.66 1.32 1 2 C-1.40983607 6.70491803 -1.40983607 6.70491803 -4 8 C-4.99 9.485 -4.99 9.485 -6 11 C-6.66 11 -7.32 11 -8 11 C-6.63629701 8.00779732 -5.05091917 5.70973471 -2.875 3.25 C-2.33617187 2.63640625 -1.79734375 2.0228125 -1.2421875 1.390625 C-0.62730469 0.70226562 -0.62730469 0.70226562 0 0 Z " fill="#379357" transform="translate(576,644)"/>
<path d="M0 0 C0 0.99 0 1.98 0 3 C-1.58409994 2.88512252 -3.16728963 2.75765492 -4.75 2.625 C-5.63171875 2.55539062 -6.5134375 2.48578125 -7.421875 2.4140625 C-9.99066382 2.00149945 -11.75841015 1.28839043 -14 0 C-9.02936879 -0.91297308 -4.97063121 -0.91297308 0 0 Z " fill="#379358" transform="translate(1114,610)"/>
<path d="M0 0 C2.64 0.66 5.28 1.32 8 2 C8.33 3.98 8.66 5.96 9 8 C5.01824456 5.89851796 2.64960955 3.63094642 0 0 Z " fill="#D0F0DF" transform="translate(1391,570)"/>
<path d="M0 0 C0 3.39593478 -0.52165948 4.06619881 -2.5 6.6875 C-2.9640625 7.31011719 -3.428125 7.93273438 -3.90625 8.57421875 C-4.2671875 9.04472656 -4.628125 9.51523438 -5 10 C-6.32 9.34 -7.64 8.68 -9 8 C-6.03 5.36 -3.06 2.72 0 0 Z " fill="#CEF0DA" transform="translate(1065,1091)"/>
<path d="M0 0 C0.99 0 1.98 0 3 0 C2.57316761 1.58624235 2.13303842 3.1689098 1.6875 4.75 C1.44386719 5.63171875 1.20023438 6.5134375 0.94921875 7.421875 C-0.02125331 10.05772505 -1.21005644 11.85407326 -3 14 C-2.80083984 13.11248047 -2.80083984 13.11248047 -2.59765625 12.20703125 C-1.68994822 8.14553475 -0.7908887 4.08625829 0 0 Z " fill="#147C39" transform="translate(625,870)"/>
<path d="M0 0 C2.50037734 2.17424117 3.43628586 3.73045798 4 7 C4.66 7 5.32 7 6 7 C5.67 7.66 5.34 8.32 5 9 C2.9375 9.625 2.9375 9.625 1 10 C1 8.02 1 6.04 1 4 C0.34 3.67 -0.32 3.34 -1 3 C-0.67 2.01 -0.34 1.02 0 0 Z " fill="#17833C" transform="translate(1509,701)"/>
<path d="M0 0 C-4.50332676 3.00221784 -8.57767579 4.31896025 -14 4 C-14 3.34 -14 2.68 -14 2 C-9.15758367 0.66416101 -5.06562383 -0.25328119 0 0 Z " fill="#228341" transform="translate(910,617)"/>
<path d="M0 0 C-0.33 0.99 -0.66 1.98 -1 3 C-1.66 3 -2.32 3 -3 3 C-3.33 3.99 -3.66 4.98 -4 6 C-6.31 6.33 -8.62 6.66 -11 7 C-4.48275862 0 -4.48275862 0 0 0 Z " fill="#2A8B4D" transform="translate(712,528)"/>
<path d="M0 0 C1.32 0.33 2.64 0.66 4 1 C0.37 3.31 -3.26 5.62 -7 8 C-7.33 6.68 -7.66 5.36 -8 4 C-4.535 3.505 -4.535 3.505 -1 3 C-0.67 2.01 -0.34 1.02 0 0 Z " fill="#D2F4E0" transform="translate(717,521)"/>
<path d="M0 0 C9.88344059 0.61243542 9.88344059 0.61243542 13 4 C13 4.66 13 5.32 13 6 C3.40546697 3.10933941 3.40546697 3.10933941 0 0 Z " fill="#C4EBD1" transform="translate(1261,490)"/>
<path d="M0 0 C-0.99 0.33 -1.98 0.66 -3 1 C-3.73323796 3.01508358 -3.73323796 3.01508358 -4 5 C-4.99 5 -5.98 5 -7 5 C-7 4.34 -7 3.68 -7 3 C-8.98 3.33 -10.96 3.66 -13 4 C-10.56272708 2.37515139 -8.62713877 1.34310925 -5.9375 0.3125 C-5.24527344 0.04050781 -4.55304687 -0.23148437 -3.83984375 -0.51171875 C-2 -1 -2 -1 0 0 Z " fill="#3B945B" transform="translate(825,474)"/>
<path d="M0 0 C5.27315333 0.4452885 10.01770224 1.08373163 15 3 C15 3.33 15 3.66 15 4 C8.07 3.505 8.07 3.505 1 3 C0.67 2.01 0.34 1.02 0 0 Z " fill="#2B894C" transform="translate(1015,932)"/>
<path d="M0 0 C2 3 2 3 1.625 6.1875 C1.41875 7.115625 1.2125 8.04375 1 9 C-0.32 9.33 -1.64 9.66 -3 10 C-2.01 6.7 -1.02 3.4 0 0 Z " fill="#2E8F4D" transform="translate(468,832)"/>
<path d="M0 0 C0.66 0 1.32 0 2 0 C0.81819916 5.02265357 -0.44992282 8.0949151 -4 12 C-2.7027027 2.7027027 -2.7027027 2.7027027 0 0 Z " fill="#D8F5E0" transform="translate(488,778)"/>
<path d="M0 0 C2.91488977 2.6234008 4.88503898 5.71816394 7 9 C6.67 9.66 6.34 10.32 6 11 C5.01 10.67 4.02 10.34 3 10 C3 9.34 3 8.68 3 8 C2.34 8 1.68 8 1 8 C0.67 5.36 0.34 2.72 0 0 Z " fill="#29894A" transform="translate(1515,710)"/>
<path d="M0 0 C4.23429756 1.31061591 8.07407404 2.94356259 12 5 C12 5.33 12 5.66 12 6 C9.36 5.67 6.72 5.34 4 5 C4 4.34 4 3.68 4 3 C2.68 2.67 1.36 2.34 0 2 C0 1.34 0 0.68 0 0 Z " fill="#1A7F3F" transform="translate(1268,494)"/>
<path d="M0 0 C1.14926266 0.95421808 2.29430541 1.91352045 3.4375 2.875 C4.07558594 3.40867187 4.71367188 3.94234375 5.37109375 4.4921875 C7 6 7 6 8 8 C6.35 7.67 4.7 7.34 3 7 C3 6.34 3 5.68 3 5 C2.01 4.67 1.02 4.34 0 4 C0 2.68 0 1.36 0 0 Z " fill="#CDEFD7" transform="translate(929,1088)"/>
<path d="M0 0 C0.33 0.99 0.66 1.98 1 3 C-0.63167477 6.16736868 -1.83357085 6.93473367 -5.1875 8.25 C-6.115625 8.4975 -7.04375 8.745 -8 9 C-7.04270084 7.87411986 -6.08412105 6.7493285 -5.125 5.625 C-4.59132813 4.99851562 -4.05765625 4.37203125 -3.5078125 3.7265625 C-2.38567993 2.44163349 -1.20628025 1.20628025 0 0 Z " fill="#359054" transform="translate(593,625)"/>
<path d="M0 0 C-0.99 0.33 -1.98 0.66 -3 1 C-3 1.66 -3 2.32 -3 3 C-5.3125 4.125 -5.3125 4.125 -8 5 C-8.99 4.34 -9.98 3.68 -11 3 C-9.73581754 2.30034557 -8.46334598 1.61565237 -7.1875 0.9375 C-6.47980469 0.55464844 -5.77210938 0.17179687 -5.04296875 -0.22265625 C-3 -1 -3 -1 0 0 Z " fill="#30914D" transform="translate(755,505)"/>
<path d="M0 0 C-0.57344937 2.86724686 -0.8614515 3.8614515 -3 6 C-3 5.34 -3 4.68 -3 4 C-5.31 4.33 -7.62 4.66 -10 5 C-8.28489314 1.56978628 -3.75681361 0 0 0 Z " fill="#CBEDD7" transform="translate(1047,1106)"/>
<path d="M0 0 C0 1.32 0 2.64 0 4 C-4.455 4.495 -4.455 4.495 -9 5 C-4 0 -4 0 0 0 Z " fill="#238A49" transform="translate(958,940)"/>
<path d="M0 0 C1.44977894 2.34112451 2.04314411 3.5796929 1.7578125 6.359375 C1.54898438 7.14828125 1.34015625 7.9371875 1.125 8.75 C0.92132812 9.54921875 0.71765625 10.3484375 0.5078125 11.171875 C0.34023438 11.77515625 0.17265625 12.3784375 0 13 C-0.66 12.67 -1.32 12.34 -2 12 C-1.85904936 10.3745692 -1.71207913 8.74965949 -1.5625 7.125 C-1.48128906 6.22007812 -1.40007813 5.31515625 -1.31640625 4.3828125 C-1 2 -1 2 0 0 Z " fill="#128038" transform="translate(616,896)"/>
<path d="M0 0 C0.66 0 1.32 0 2 0 C1.34 2.97 0.68 5.94 0 9 C-0.99 9 -1.98 9 -3 9 C-2.5020163 5.26512223 -2.12508244 3.18762365 0 0 Z " fill="#2A8B4D" transform="translate(481,799)"/>
<path d="M0 0 C4.72065967 1.54269924 9.41664092 3.07794619 14 5 C10.14507389 6.28497537 8.59653164 5.4052209 4.8125 4.0625 C3.72582031 3.68222656 2.63914062 3.30195312 1.51953125 2.91015625 C0.68808594 2.60980469 -0.14335938 2.30945313 -1 2 C-0.67 1.34 -0.34 0.68 0 0 Z " fill="#D6F4DF" transform="translate(1164,628)"/>
<path d="M0 0 C3.40312738 1.05875074 6.01353231 2.00902154 9 4 C8.67 5.32 8.34 6.64 8 8 C6.2925002 6.71937515 4.62626404 5.38232443 3 4 C3 3.34 3 2.68 3 2 C2.01 1.67 1.02 1.34 0 1 C0 0.67 0 0.34 0 0 Z " fill="#C5E8D2" transform="translate(1430,606)"/>
<path d="M0 0 C0.66 0.99 1.32 1.98 2 3 C0.71475739 3.86380259 -0.57842419 4.71580369 -1.875 5.5625 C-2.59429688 6.03816406 -3.31359375 6.51382813 -4.0546875 7.00390625 C-4.69664062 7.33261719 -5.33859375 7.66132812 -6 8 C-6.66 7.67 -7.32 7.34 -8 7 C-5.36 4.69 -2.72 2.38 0 0 Z " fill="#268647" transform="translate(641,579)"/>
<path d="M0 0 C2.375 -0.125 2.375 -0.125 5 0 C5.66 0.66 6.32 1.32 7 2 C9.06874034 2.6425235 9.06874034 2.6425235 11 3 C11 3.99 11 4.98 11 6 C7.2089881 4.55049545 3.6125362 2.84827434 0 1 C0 0.67 0 0.34 0 0 Z " fill="#C4ECD1" transform="translate(1298,508)"/>
<path d="M0 0 C-6.435 2.97 -6.435 2.97 -13 6 C-13 5.01 -13 4.02 -13 3 C-11.68 3 -10.36 3 -9 3 C-9 2.34 -9 1.68 -9 1 C-3.375 -1.125 -3.375 -1.125 0 0 Z " fill="#DDF8E6" transform="translate(762,500)"/>
<path d="M0 0 C-0.66 1.32 -1.32 2.64 -2 4 C-3.98 4 -5.96 4 -8 4 C-7 1 -7 1 -4.5625 -0.25 C-2 -1 -2 -1 0 0 Z " fill="#2E8D4D" transform="translate(809,480)"/>
<path d="M0 0 C4.29 0.66 8.58 1.32 13 2 C9.64672361 4.23551759 9.09256343 4.17283528 5.3125 3.625 C4.50425781 3.51414062 3.69601562 3.40328125 2.86328125 3.2890625 C2.24839844 3.19367188 1.63351562 3.09828125 1 3 C0.67 2.01 0.34 1.02 0 0 Z " fill="#268746" transform="translate(1123,448)"/>
<path d="M0 0 C0.66 0.33 1.32 0.66 2 1 C-1.0684847 3.97550031 -2.46236331 4.96474513 -6.8125 5.25 C-7.864375 5.1675 -8.91625 5.085 -10 5 C-6.76527494 2.84351662 -3.62848922 1.38542316 0 0 Z " fill="#C4EBCE" transform="translate(1034,1111)"/>
<path d="M0 0 C5.5 1.46666667 5.5 1.46666667 7.875 4 C9 6 9 6 9 8 C4.7257442 6.4169423 2.73468206 3.49431596 0 0 Z " fill="#2A8749" transform="translate(933,1091)"/>
<path d="M0 0 C1.32 0 2.64 0 4 0 C4.66 2.31 5.32 4.62 6 7 C5.01 7 4.02 7 3 7 C0 2.77777778 0 2.77777778 0 0 Z " fill="#17843B" transform="translate(917,1070)"/>
<path d="M0 0 C3.09592835 3.5087188 4.74194623 6.49197399 6 11 C3 10 3 10 1.3125 7.1875 C0 4 0 4 0 0 Z " fill="#378C53" transform="translate(1079,975)"/>
<path d="M0 0 C0.33 0.99 0.66 1.98 1 3 C-1.45906075 6.87774964 -3.61740632 8.66087415 -8 10 C-7.59007812 9.52949219 -7.18015625 9.05898438 -6.7578125 8.57421875 C-6.21898437 7.95160156 -5.68015625 7.32898438 -5.125 6.6875 C-4.59132813 6.07261719 -4.05765625 5.45773437 -3.5078125 4.82421875 C-1.8359553 2.86501788 -1.8359553 2.86501788 0 0 Z " fill="#D0F1DB" transform="translate(716,732)"/>
<path d="M0 0 C0.99 0 1.98 0 3 0 C1.50902342 3.7952131 -0.75700849 5.61042731 -4 8 C-3.40353695 4.65980694 -2.31705841 2.49529367 0 0 Z " fill="#D1F0DC" transform="translate(597,617)"/>
<path d="M0 0 C0.66 0 1.32 0 2 0 C2 0.66 2 1.32 2 2 C1.34 2 0.68 2 0 2 C-0.103125 2.598125 -0.20625 3.19625 -0.3125 3.8125 C-1.08876455 6.28243264 -2.07088921 7.32251235 -4 9 C-4.33 8.01 -4.66 7.02 -5 6 C-2.6875 2.8125 -2.6875 2.8125 0 0 Z " fill="#2C8C50" transform="translate(604,613)"/>
<path d="M0 0 C0.66 0.33 1.32 0.66 2 1 C1.01 2.485 1.01 2.485 0 4 C-0.66 4 -1.32 4 -2 4 C-2.33 4.99 -2.66 5.98 -3 7 C-4.65 7 -6.3 7 -8 7 C-5.42215154 4.35247996 -3.08351902 2.05567935 0 0 Z " fill="#2B8B4C" transform="translate(680,548)"/>
<path d="M0 0 C-4.21683811 2.8990762 -8.06866002 3.91343356 -13 5 C-13 4.34 -13 3.68 -13 3 C-11.02 2.67 -9.04 2.34 -7 2 C-7 1.34 -7 0.68 -7 0 C-3.98968256 -0.93423645 -3.13349732 -1.04449911 0 0 Z " fill="#D3F5DD" transform="translate(781,491)"/>
<path d="M0 0 C0.66 0.33 1.32 0.66 2 1 C0.3125 3.5 0.3125 3.5 -2 6 C-4.75 6.3125 -4.75 6.3125 -7 6 C-4.74259377 3.66475218 -2.7194239 1.81294927 0 0 Z " fill="#CCF1DC" transform="translate(1054,1100)"/>
<path d="M0 0 C0.99 0.33 1.98 0.66 3 1 C3.73046875 2.84765625 3.73046875 2.84765625 4.1875 5.0625 C4.34605469 5.79597656 4.50460937 6.52945313 4.66796875 7.28515625 C4.83232422 8.13400391 4.83232422 8.13400391 5 9 C2.5 7.875 2.5 7.875 0 6 C-0.3125 2.8125 -0.3125 2.8125 0 0 Z " fill="#1A803B" transform="translate(1083,985)"/>
<path d="M0 0 C3.37503669 1.1858237 5.64722731 2.27573689 8 5 C7.67 5.66 7.34 6.32 7 7 C4.525 6.01 4.525 6.01 2 5 C2 4.01 2 3.02 2 2 C1.34 2 0.68 2 0 2 C0 1.34 0 0.68 0 0 Z " fill="#198341" transform="translate(1046,944)"/>
<path d="M0 0 C0.33 0 0.66 0 1 0 C1 1.65 1 3.3 1 5 C0.34 5 -0.32 5 -1 5 C-1.33 6.98 -1.66 8.96 -2 11 C-2.99 10.67 -3.98 10.34 -5 10 C-3.66654496 6.40992874 -2.1056769 3.20429093 0 0 Z " fill="#2D8A50" transform="translate(527,710)"/>
<path d="M0 0 C0.99 0.33 1.98 0.66 3 1 C0.69 3.31 -1.62 5.62 -4 8 C-4.66 7.01 -5.32 6.02 -6 5 C-1.60546875 0.99609375 -1.60546875 0.99609375 0 0 Z " fill="#228443" transform="translate(736,710)"/>
<path d="M0 0 C0 0.66 0 1.32 0 2 C-2.75 4.1875 -2.75 4.1875 -6 6 C-8.203125 5.61328125 -8.203125 5.61328125 -10 5 C-8.71186658 4.16121545 -7.41936744 3.32913217 -6.125 2.5 C-5.40570312 2.0359375 -4.68640625 1.571875 -3.9453125 1.09375 C-2 0 -2 0 0 0 Z " fill="#BFE9CD" transform="translate(807,662)"/>
<path d="M0 0 C3.33727786 1.17255709 5.77437487 2.18868404 8 5 C8 5.66 8 6.32 8 7 C5.5625 6.1875 5.5625 6.1875 3 5 C2.67 4.01 2.34 3.02 2 2 C1.01 1.67 0.02 1.34 -1 1 C-0.67 0.67 -0.34 0.34 0 0 Z " fill="#1B8440" transform="translate(1213,646)"/>
<path d="M0 0 C1.44010481 0.25662245 2.8770687 0.53090821 4.3125 0.8125 C5.11300781 0.96332031 5.91351562 1.11414063 6.73828125 1.26953125 C9.23445587 2.07572236 10.32422106 3.02052002 12 5 C9.69 4.67 7.38 4.34 5 4 C5 3.34 5 2.68 5 2 C4.01 2.33 3.02 2.66 2 3 C1.34 2.67 0.68 2.34 0 2 C0 1.34 0 0.68 0 0 Z " fill="#D3F3DE" transform="translate(1178,634)"/>
<path d="M0 0 C2.97 0.99 5.94 1.98 9 3 C8.34 3.66 7.68 4.32 7 5 C3.875 4.625 3.875 4.625 1 4 C0.67 2.68 0.34 1.36 0 0 Z " fill="#19813D" transform="translate(1233,479)"/>
<path d="M0 0 C-4.95 2.475 -4.95 2.475 -10 5 C-10 4.01 -10 3.02 -10 2 C-4.5 -1.125 -4.5 -1.125 0 0 Z " fill="#227F40" transform="translate(1050,1104)"/>
<path d="M0 0 C0.33 1.32 0.66 2.64 1 4 C0.34 4 -0.32 4 -1 4 C-1.66 5.98 -2.32 7.96 -3 10 C-3.66 10 -4.32 10 -5 10 C-3.84414715 6.08788267 -2.64465038 3.1254959 0 0 Z " fill="#BFE7CD" transform="translate(1084,1065)"/>
<path d="M0 0 C0.33 0 0.66 0 1 0 C0.38461538 6.52307692 0.38461538 6.52307692 -1.5625 8.9375 C-2.036875 9.288125 -2.51125 9.63875 -3 10 C-2.25 3.375 -2.25 3.375 0 0 Z " fill="#258A4A" transform="translate(921,970)"/>
<path d="M0 0 C0.33 0 0.66 0 1 0 C1.3125 2.3125 1.3125 2.3125 1 5 C-1.5 6.8125 -1.5 6.8125 -4 8 C-4 4.08147427 -2.54970541 2.85876061 0 0 Z " fill="#C9EDD6" transform="translate(687,766)"/>
<path d="M0 0 C3.09592835 3.5087188 4.74194623 6.49197399 6 11 C3 10 3 10 1.3125 7.1875 C0 4 0 4 0 0 Z " fill="#318E50" transform="translate(1525,725)"/>
<path d="M0 0 C1.14926266 0.95421808 2.29430541 1.91352045 3.4375 2.875 C4.07558594 3.40867187 4.71367188 3.94234375 5.37109375 4.4921875 C7 6 7 6 8 8 C4.89347355 7.6641593 3.39585697 7.40950721 1.1875 5.125 C0 3 0 3 0 0 Z " fill="#D7F3DE" transform="translate(1321,729)"/>
<path d="M0 0 C2.31 0.66 4.62 1.32 7 2 C7.33 3.65 7.66 5.3 8 7 C6.66382648 6.02471263 5.3311249 5.04466681 4 4.0625 C3.2575 3.51722656 2.515 2.97195313 1.75 2.41015625 C1.1725 1.94480469 0.595 1.47945312 0 1 C0 0.67 0 0.34 0 0 Z " fill="#28864B" transform="translate(1303,711)"/>
<path d="M0 0 C0.99 0.33 1.98 0.66 3 1 C2.19185349 2.33597652 1.37836819 3.668725 0.5625 5 C0.11003906 5.7425 -0.34242188 6.485 -0.80859375 7.25 C-1.20175781 7.8275 -1.59492187 8.405 -2 9 C-2.33 9 -2.66 9 -3 9 C-3 7.02 -3 5.04 -3 3 C-2.34 3 -1.68 3 -1 3 C-0.67 2.01 -0.34 1.02 0 0 Z " fill="#DAF7E4" transform="translate(524,711)"/>
<path d="M0 0 C0 0.66 0 1.32 0 2 C-0.66 2 -1.32 2 -2 2 C-2.33 2.99 -2.66 3.98 -3 5 C-4.98 5 -6.96 5 -9 5 C-7.36885863 1.73771726 -3.62038485 0 0 0 Z " fill="#C2E8D0" transform="translate(832,648)"/>
<path d="M0 0 C3.3125 0.1875 3.3125 0.1875 7 1 C8.9375 3.5625 8.9375 3.5625 10 6 C6.40992874 4.66654496 3.20429093 3.1056769 0 1 C0 0.67 0 0.34 0 0 Z " fill="#BDE5CA" transform="translate(1309,514)"/>
<path d="M0 0 C5.4611399 0.35233161 5.4611399 0.35233161 8 1 C9.5 3.0625 9.5 3.0625 10 5 C6.08788267 3.84414715 3.1254959 2.64465038 0 0 Z " fill="#B9E3C9" transform="translate(1280,499)"/>
<path d="M0 0 C2.64 0 5.28 0 8 0 C5.7448078 2.2551922 3.9952413 2.97723468 1 4 C0.01 4 -0.98 4 -2 4 C-1.34 2.68 -0.68 1.36 0 0 Z " fill="#DFFAEB" transform="translate(789,483)"/>
<path d="M0 0 C1.43655854 -0.08131463 2.8744483 -0.13933559 4.3125 -0.1875 C5.51326172 -0.23970703 5.51326172 -0.23970703 6.73828125 -0.29296875 C9.47851584 0.06198392 10.29171079 0.89366282 12 3 C10.56163249 2.88541307 9.12429034 2.75790884 7.6875 2.625 C6.88699219 2.55539062 6.08648438 2.48578125 5.26171875 2.4140625 C3 2 3 2 0 0 Z " fill="#C7EED6" transform="translate(1158,455)"/>
<path d="M0 0 C3.96 0 7.92 0 12 0 C12 0.33 12 0.66 12 1 C7.71 1.66 3.42 2.32 -1 3 C-0.67 2.01 -0.34 1.02 0 0 Z " fill="#D2F1DC" transform="translate(884,453)"/>
<path d="M0 0 C0.33 0.66 0.66 1.32 1 2 C0.22265625 3.9453125 0.22265625 3.9453125 -0.9375 6.125 C-1.31777344 6.84945312 -1.69804688 7.57390625 -2.08984375 8.3203125 C-2.39019531 8.87460937 -2.69054687 9.42890625 -3 10 C-3.66 10 -4.32 10 -5 10 C-3.84414715 6.08788267 -2.64465038 3.1254959 0 0 Z " fill="#C2EAD0" transform="translate(670,790)"/>
<path d="M0 0 C2.2477975 2.05233685 3.0022242 3.00667261 4 6 C4.66 6.66 5.32 7.32 6 8 C5.01 8 4.02 8 3 8 C1.61328125 6.46875 1.61328125 6.46875 0.3125 4.5 C-0.12449219 3.8503125 -0.56148437 3.200625 -1.01171875 2.53125 C-1.50091797 1.77328125 -1.50091797 1.77328125 -2 1 C-1.34 0.67 -0.68 0.34 0 0 Z " fill="#1B853E" transform="translate(1347,753)"/>
<path d="M0 0 C0.33 0.99 0.66 1.98 1 3 C0.01 3.33 -0.98 3.66 -2 4 C-3.21869929 6.50447516 -3.21869929 6.50447516 -4 9 C-4.99 8.67 -5.98 8.34 -7 8 C-4.69 5.36 -2.38 2.72 0 0 Z " fill="#C8EED4" transform="translate(707,742)"/>
<path d="M0 0 C3.74281699 2.38179263 6.97727468 4.74475735 10 8 C9.01 8.495 9.01 8.495 8 9 C8 8.34 8 7.68 8 7 C7.4225 6.9175 6.845 6.835 6.25 6.75 C3.3460664 5.78202213 1.96259396 4.31305716 0 2 C0 1.34 0 0.68 0 0 Z " fill="#DAF9E5" transform="translate(1279,692)"/>
<path d="M0 0 C7.57142857 4.14285714 7.57142857 4.14285714 10 7 C5.61537866 6.49890042 3.1999003 5.01704885 0 2 C0 1.34 0 0.68 0 0 Z " fill="#D0F2D9" transform="translate(1263,680)"/>
<path d="M0 0 C1 3 1 3 0.375 5.0625 C-1.40232276 7.56690935 -3.1198813 8.09048883 -6 9 C-4.47291037 5.56404834 -2.40072955 2.88087546 0 0 Z " fill="#3A955A" transform="translate(558,666)"/>
<path d="M0 0 C0.66 0 1.32 0 2 0 C0.44499019 3.81684226 -2.03595495 6.19195732 -5 9 C-5 8.01 -5 7.02 -5 6 C-4.34 6 -3.68 6 -3 6 C-2.87625 5.38125 -2.7525 4.7625 -2.625 4.125 C-2 2 -2 2 0 0 Z " fill="#CFF2DA" transform="translate(559,662)"/>
<path d="M0 0 C4.875 4.75 4.875 4.75 6 7 C5.01 7.33 4.02 7.66 3 8 C0.37613513 4.93882432 0 4.26826873 0 0 Z " fill="#298A4A" transform="translate(1462,639)"/>
<path d="M0 0 C2.31 0 4.62 0 7 0 C7 0.99 7 1.98 7 3 C8.32 3.33 9.64 3.66 11 4 C10.01 4.495 10.01 4.495 9 5 C6.8359375 4.22265625 6.8359375 4.22265625 4.375 3.0625 C3.55773438 2.68222656 2.74046875 2.30195313 1.8984375 1.91015625 C1.27195312 1.60980469 0.64546875 1.30945313 0 1 C0 0.67 0 0.34 0 0 Z " fill="#A8D5B5" transform="translate(1237,480)"/>
<path d="M0 0 C0.33 0.66 0.66 1.32 1 2 C-1.33679861 5.83902629 -2.86281109 8.20953589 -7 10 C-6.02223933 8.51990357 -5.0427506 7.04094856 -4.0625 5.5625 C-3.51722656 4.73878906 -2.97195313 3.91507813 -2.41015625 3.06640625 C-1 1 -1 1 0 0 Z " fill="#333333" transform="translate(1361,1272)"/>
<path d="M0 0 C0.66 1.32 1.32 2.64 2 4 C0.71034824 5.37562854 -0.62689293 6.70766393 -2 8 C-2.66 8 -3.32 8 -4 8 C-2.87548273 5.0280615 -1.77706209 2.66559313 0 0 Z " fill="#3C3C3C" transform="translate(1386,1234)"/>
<path d="M0 0 C0.66 0 1.32 0 2 0 C4.09230769 4.43076923 4.09230769 4.43076923 3.625 7.3125 C3.41875 7.869375 3.2125 8.42625 3 9 C0 3.375 0 3.375 0 0 Z " fill="#167C3A" transform="translate(908,1048)"/>
<path d="M0 0 C0.66 0.33 1.32 0.66 2 1 C1.67 1.99 1.34 2.98 1 4 C-2.0625 5.1875 -2.0625 5.1875 -5 6 C-4.34 4.68 -3.68 3.36 -3 2 C-2.01 2 -1.02 2 0 2 C0 1.34 0 0.68 0 0 Z " fill="#1C853F" transform="translate(929,962)"/>
<path d="M0 0 C3.37462715 0.54723683 5.08235 1.0549 8 3 C7.67 3.99 7.34 4.98 7 6 C5.83054208 5.19152271 4.66449539 4.37810888 3.5 3.5625 C2.8503125 3.11003906 2.200625 2.65757812 1.53125 2.19140625 C1.0259375 1.79824219 0.520625 1.40507813 0 1 C0 0.67 0 0.34 0 0 Z " fill="#C6ECD3" transform="translate(1048,944)"/>
<path d="M0 0 C0.33 0 0.66 0 1 0 C1.25 6.625 1.25 6.625 -1 10 C-1.66 10 -2.32 10 -3 10 C-2.01 6.7 -1.02 3.4 0 0 Z " fill="#C3ECCF" transform="translate(612,921)"/>
<path d="M0 0 C0.99 0 1.98 0 3 0 C2.01 3.3 1.02 6.6 0 10 C-0.33 10 -0.66 10 -1 10 C-0.67 6.7 -0.34 3.4 0 0 Z " fill="#CBEED5" transform="translate(475,806)"/>
<path d="M0 0 C0.99 0 1.98 0 3 0 C2.25 2.4375 2.25 2.4375 1 5 C-1.125 5.8125 -1.125 5.8125 -3 6 C-2.42655063 3.13275314 -2.1385485 2.1385485 0 0 Z " fill="#0F7C32" transform="translate(687,761)"/>
<path d="M0 0 C2.66666667 0.66666667 5.33333333 1.33333333 8 2 C7.67 2.99 7.34 3.98 7 5 C4.0625 4.1875 4.0625 4.1875 1 3 C0.67 2.01 0.34 1.02 0 0 Z " fill="#238644" transform="translate(1232,658)"/>
<path d="M0 0 C1.31611677 0.95336021 2.62778961 1.91285774 3.9375 2.875 C4.66839844 3.40867187 5.39929687 3.94234375 6.15234375 4.4921875 C8 6 8 6 9 8 C5.625 7.375 5.625 7.375 2 6 C0.5625 2.875 0.5625 2.875 0 0 Z " fill="#1E7F40" transform="translate(1421,598)"/>
<path d="M0 0 C0.66 0.33 1.32 0.66 2 1 C2 1.99 2 2.98 2 4 C-0.35438733 5.42944945 -1.48032433 6.08661261 -4.25 5.625 C-4.8275 5.41875 -5.405 5.2125 -6 5 C-4.02 3.35 -2.04 1.7 0 0 Z " fill="#278B49" transform="translate(670,555)"/>
<path d="M0 0 C3.45925163 1.2491742 6.14693203 2.67527795 9 5 C2.25 4.125 2.25 4.125 0 3 C0 2.01 0 1.02 0 0 Z " fill="#1D813D" transform="translate(1307,514)"/>
<path d="M0 0 C-4.30769231 3.07692308 -4.30769231 3.07692308 -7.8125 2.6875 C-8.534375 2.460625 -9.25625 2.23375 -10 2 C-6.80505194 -1.19494806 -4.22040044 -1.35655728 0 0 Z " fill="#358E54" transform="translate(866,462)"/>
<path d="M0 0 C0 0.66 0 1.32 0 2 C0.99 2.33 1.98 2.66 3 3 C-1.02992782 2.44687265 -5.02022924 1.8441938 -9 1 C-9 0.67 -9 0.34 -9 0 C-5.62182575 -0.84454356 -3.32534757 -1.10844919 0 0 Z " fill="#BBE4C7" transform="translate(1149,451)"/>
<path d="M0 0 C2.375 0.1875 2.375 0.1875 5 1 C6.3125 3.5625 6.3125 3.5625 7 6 C6.01 6.495 6.01 6.495 5 7 C3.35 4.69 1.7 2.38 0 0 Z " fill="#1C803F" transform="translate(922,1079)"/>
<path d="M0 0 C0.33 0 0.66 0 1 0 C1.125 5.75 1.125 5.75 0 8 C-0.99 8 -1.98 8 -3 8 C-1.125 2.25 -1.125 2.25 0 0 Z " fill="#BBE6CA" transform="translate(645,833)"/>
<path d="M0 0 C0.66 0.99 1.32 1.98 2 3 C-0.97 5.475 -0.97 5.475 -4 8 C-4 7.01 -4 6.02 -4 5 C-3.34 5 -2.68 5 -2 5 C-1.7834375 4.0409375 -1.7834375 4.0409375 -1.5625 3.0625 C-1 1 -1 1 0 0 Z " fill="#248344" transform="translate(702,744)"/>
<path d="M0 0 C0.33 0.66 0.66 1.32 1 2 C1.99 2.33 2.98 2.66 4 3 C3.67 4.32 3.34 5.64 3 7 C1.35 5.02 -0.3 3.04 -2 1 C-1.34 0.67 -0.68 0.34 0 0 Z " fill="#258547" transform="translate(1325,729)"/>
<path d="M0 0 C1.32 0.66 2.64 1.32 4 2 C2.35 3.32 0.7 4.64 -1 6 C-1 2 -1 2 0 0 Z " fill="#0F7F37" transform="translate(716,727)"/>
<path d="M0 0 C1.32 0 2.64 0 4 0 C4.33 2.31 4.66 4.62 5 7 C1.18461538 4.53846154 1.18461538 4.53846154 0.25 1.8125 C0.1675 1.214375 0.085 0.61625 0 0 Z " fill="#1C863F" transform="translate(1292,699)"/>
<path d="M0 0 C2.64 1.65 5.28 3.3 8 5 C6.68 5.33 5.36 5.66 4 6 C1.75 4.1875 1.75 4.1875 0 2 C0 1.34 0 0.68 0 0 Z " fill="#298848" transform="translate(1387,568)"/>
<path d="M0 0 C2.31 0.66 4.62 1.32 7 2 C6.34 2.66 5.68 3.32 5 4 C1.875 3.625 1.875 3.625 -1 3 C-0.67 2.01 -0.34 1.02 0 0 Z " fill="#168135" transform="translate(1254,488)"/>
<path d="M0 0 C0 0.66 0 1.32 0 2 C-3 4 -3 4 -7 4 C-7.33 4.66 -7.66 5.32 -8 6 C-8 5.01 -8 4.02 -8 3 C-2.25 0 -2.25 0 0 0 Z " fill="#0F7C35" transform="translate(830,472)"/>
<path d="M0 0 C-2.93828597 2.50298434 -5.17902761 3.46930939 -9 4 C-8.67 3.01 -8.34 2.02 -8 1 C-5.07175348 0.02391783 -3.04386724 -0.08226668 0 0 Z " fill="#EDFEF6" transform="translate(1044,1110)"/>
<path d="M0 0 C0.33 1.32 0.66 2.64 1 4 C0.34 4 -0.32 4 -1 4 C-1 5.32 -1 6.64 -1 8 C-1.99 8 -2.98 8 -4 8 C-2.87548273 5.0280615 -1.77706209 2.66559313 0 0 Z " fill="#C3EBD2" transform="translate(652,821)"/>
<path d="M0 0 C0.66 0 1.32 0 2 0 C1.60196439 2.88575819 1.20990931 3.82189513 -1.0625 5.75 C-1.701875 6.1625 -2.34125 6.575 -3 7 C-3.33 6.01 -3.66 5.02 -4 4 C-3.01 4 -2.02 4 -1 4 C-0.67 2.68 -0.34 1.36 0 0 Z " fill="#298849" transform="translate(713,732)"/>
<path d="M0 0 C1.32 0.33 2.64 0.66 4 1 C4.33 2.98 4.66 4.96 5 7 C4.34 7 3.68 7 3 7 C2.01 4.69 1.02 2.38 0 0 Z " fill="#D1F3DF" transform="translate(1521,718)"/>
<path d="M0 0 C0.33 0.66 0.66 1.32 1 2 C-1.40436026 5.60654039 -2.94679607 5.85452932 -7 7 C-4.66666667 4.66666667 -2.33333333 2.33333333 0 0 Z " fill="#CDF2D8" transform="translate(761,692)"/>
<path d="M0 0 C1.32 0.33 2.64 0.66 4 1 C2.35 2.32 0.7 3.64 -1 5 C-1.66 4.67 -2.32 4.34 -3 4 C-2.01 2.68 -1.02 1.36 0 0 Z " fill="#DEF8E8" transform="translate(770,685)"/>
<path d="M0 0 C1.32 0.66 2.64 1.32 4 2 C1.69 3.32 -0.62 4.64 -3 6 C-2.42655063 3.13275314 -2.1385485 2.1385485 0 0 Z " fill="#208542" transform="translate(782,673)"/>
<path d="M0 0 C-3.08888522 2.05925681 -3.70935927 2.2390374 -7.1875 2.125 C-9.0746875 2.063125 -9.0746875 2.063125 -11 2 C-7.72338241 -1.27661759 -4.29690696 -1.43230232 0 0 Z " fill="#BAE5CA" transform="translate(930,614)"/>
<path d="M0 0 C2.31 1.98 4.62 3.96 7 6 C6.01 6.495 6.01 6.495 5 7 C4.01 6.67 3.02 6.34 2 6 C0.8125 2.9375 0.8125 2.9375 0 0 Z " fill="#1E7F3F" transform="translate(1414,591)"/>
<path d="M0 0 C2.475 0.495 2.475 0.495 5 1 C5.33 2.65 5.66 4.3 6 6 C3.97945196 4.35830472 1.97956942 2.69088222 0 1 C0 0.67 0 0.34 0 0 Z " fill="#C6EBD3" transform="translate(1416,592)"/>
<path d="M0 0 C-3.20336822 2.83374881 -5.78087253 3.5205537 -10 4 C-10.33 3.34 -10.66 2.68 -11 2 C-7.17679443 0.57741188 -4.08718695 -0.24042276 0 0 Z " fill="#D4F5E0" transform="translate(815,476)"/>
</svg>
